<?xml version="1.0" encoding="utf-8"?>
<!-- Generator: Adobe Illustrator 23.1.0, SVG Export Plug-In . SVG Version: 6.00 Build 0)  -->
<svg version="1.1" id="Layer_1" xmlns="http://www.w3.org/2000/svg" xmlns:xlink="http://www.w3.org/1999/xlink" x="0px" y="0px"
	 viewBox="0 0 828.65 352.3" style="enable-background:new 0 0 828.65 352.3;" xml:space="preserve">
<style type="text/css">
	.st0{fill:#75A14A;}
	.st1{fill:#926D30;}
	.st2{fill:#FFCCCC;}
	.st3{fill:#CCD7E1;}
	.st4{fill:#52BEEC;}
	.st5{fill:#415A6B;}
	.st6{fill:#FFD35B;}
	.st7{fill:#F36E5A;}
	.st8{fill:#E7E7E7;}
	.st9{fill:#F3F3F2;}
	.st10{fill:#E8E8E8;}
	.st11{fill:#ABB1B9;}
	.st12{fill:#FFFFC4;}
	.st13{fill:#8AD6F6;}
	.st14{fill:#E6CC3C;}
	.st15{fill:#22A758;}
	.st16{fill:#D9C900;}
	.st17{fill:#8A682D;}
	.st18{fill:#75A14C;}
</style>
<g>
	<g>
		<path class="st0" d="M193.99,199.98c-0.81-54.93,16.84-99.73,39.42-100.06c22.58-0.33,41.53,43.93,42.34,98.86
			S194.79,254.9,193.99,199.98z"/>
		<path class="st1" d="M255.18,195.92c-1.32-1.22-3.4-1.15-4.62,0.17l-13.05,14.04v-51.29c0-1.8-1.47-3.27-3.27-3.27
			s-3.27,1.47-3.27,3.27v20.27l-4.4-4.84c-1.18-1.3-3.2-1.39-4.5-0.21c-1.3,1.18-1.39,3.2-0.21,4.5l9.11,10.02v29.58l-11.66-14.7
			c-1.12-1.41-3.19-1.65-4.59-0.53c-1.41,1.12-1.65,3.19-0.53,4.59l16.26,20.5c0.15,0.19,0.35,0.3,0.53,0.44v44.85
			c0,1.8,1.47,3.27,3.27,3.27s3.27-1.47,3.27-3.27v-53.58c0.01-0.01,0.02-0.01,0.03-0.02l17.81-19.17
			C256.58,199.23,256.5,197.15,255.18,195.92z"/>
	</g>
	<g>
		<rect x="340.93" y="72.36" class="st2" width="91.54" height="208.37"/>
		<rect x="349.51" y="44.94" class="st3" width="74.38" height="27.42"/>
		<rect x="359.52" y="23.01" class="st2" width="54.35" height="21.93"/>
		<rect x="375.25" y="1.07" class="st3" width="22.89" height="21.93"/>
		<rect x="353.8" y="99.77" class="st4" width="11.44" height="180.95"/>
		<rect x="381.33" y="99.77" class="st4" width="11.44" height="180.95"/>
		<rect x="408.87" y="99.77" class="st4" width="11.44" height="180.95"/>
	</g>
	<g>
		<rect x="596.36" y="139.27" class="st5" width="14.7" height="120.58"/>
		<rect x="490.49" y="139.27" class="st5" width="14.7" height="120.58"/>
		<rect x="522.47" y="109.12" class="st5" width="57.35" height="11.76"/>
		<rect x="505.2" y="120.88" class="st6" width="90.8" height="138.96"/>
		<rect x="519.16" y="134.61" class="st7" width="11.76" height="17.65"/>
		<rect x="544.9" y="134.61" class="st7" width="11.76" height="17.65"/>
		<rect x="569.9" y="134.61" class="st7" width="11.76" height="17.65"/>
		<rect x="519.16" y="165.49" class="st7" width="11.76" height="17.65"/>
		<rect x="544.9" y="165.49" class="st7" width="11.76" height="17.65"/>
		<rect x="569.9" y="165.49" class="st7" width="11.76" height="17.65"/>
		<rect x="519.16" y="196.37" class="st7" width="11.76" height="17.65"/>
		<rect x="544.9" y="196.37" class="st7" width="11.76" height="17.65"/>
		<rect x="569.9" y="196.37" class="st7" width="11.76" height="17.65"/>
		<path class="st8" d="M551.45,259.84h-18.39v-26.19c0,0,6.67-6.89,17.7-6.89v33.09"/>
		<path class="st3" d="M549.61,259.84H568v-26.19c0,0-6.67-6.89-17.7-6.89v33.09"/>
	</g>
	<g>
		<rect x="425.84" y="192.64" class="st7" width="123.33" height="158.87"/>
		<rect x="439.42" y="208.32" class="st9" width="18.81" height="18.81"/>
		<rect x="477.05" y="208.32" class="st9" width="18.81" height="18.81"/>
		<rect x="514.68" y="208.32" class="st9" width="18.81" height="18.81"/>
		<rect x="439.42" y="243.86" class="st9" width="18.81" height="18.81"/>
		<rect x="477.05" y="243.86" class="st9" width="18.81" height="18.81"/>
		<rect x="514.68" y="243.86" class="st9" width="18.81" height="18.81"/>
		<rect x="439.42" y="279.4" class="st9" width="18.81" height="18.81"/>
		<rect x="477.05" y="279.4" class="st9" width="18.81" height="18.81"/>
		<rect x="514.68" y="279.4" class="st9" width="18.81" height="18.81"/>
		<rect x="463.46" y="313.89" class="st5" width="47.03" height="37.63"/>
	</g>
	<g>
		<rect x="652.54" y="62.14" class="st10" width="161.02" height="87.79"/>
		<rect x="750.21" y="85.38" class="st11" width="42.23" height="46.48"/>
		<rect x="669.7" y="86.67" class="st11" width="42.23" height="46.48"/>
		<rect x="607.67" y="118.95" class="st12" width="163.66" height="206.57"/>
		<rect x="635.38" y="140.9" class="st4" width="34.31" height="25.82"/>
		<rect x="706.65" y="140.9" class="st4" width="34.31" height="25.82"/>
		<rect x="635.38" y="184.79" class="st4" width="34.31" height="25.82"/>
		<rect x="706.65" y="184.79" class="st4" width="34.31" height="25.82"/>
		<rect x="635.38" y="231.27" class="st4" width="34.31" height="25.82"/>
		<rect x="706.65" y="231.27" class="st4" width="34.31" height="25.82"/>
		<rect x="665.74" y="286.79" class="st5" width="47.51" height="38.73"/>
		<rect x="771.32" y="149.94" class="st13" width="55.43" height="175.58"/>
		<rect x="771.32" y="170.59" class="st5" width="34.31" height="41.31"/>
		<rect x="771.32" y="253.22" class="st5" width="34.31" height="41.31"/>
	</g>
	<g>
		<path class="st14" d="M590.06,310.01c-0.5-34.29,10.51-62.25,24.61-62.46s25.93,27.42,26.43,61.71
			C641.6,343.55,590.56,344.3,590.06,310.01z"/>
		<path class="st1" d="M628.26,307.48c-0.82-0.76-2.12-0.72-2.89,0.11l-8.15,8.77v-32.02c0-1.12-0.92-2.04-2.04-2.04
			s-2.04,0.92-2.04,2.04v12.66l-2.75-3.02c-0.74-0.81-2-0.87-2.81-0.13c-0.81,0.74-0.87,2-0.13,2.81l5.69,6.25v18.46l-7.28-9.18
			c-0.7-0.88-1.99-1.03-2.87-0.33c-0.88,0.7-1.03,1.99-0.33,2.87l10.15,12.8c0.09,0.12,0.22,0.19,0.33,0.28v28
			c0,1.12,0.92,2.04,2.04,2.04s2.04-0.92,2.04-2.04v-33.45c0.01-0.01,0.01-0.01,0.02-0.01l11.12-11.96
			C629.14,309.54,629.09,308.24,628.26,307.48z"/>
	</g>
	<g>
		<path class="st1" d="M199.22,280.37L199.22,280.37c-1.25,0-2.26-1.02-2.26-2.26v-38.48c0-1.25,1.02-2.26,2.26-2.26l0,0
			c1.25,0,2.26,1.02,2.26,2.26v38.48C201.48,279.35,200.46,280.37,199.22,280.37z"/>
		<ellipse class="st15" cx="199.22" cy="235.09" rx="16.98" ry="20.37"/>
	</g>
	<g>
		<path class="st16" d="M68.25,246.15c1.5-2.41,2.42-5.06,2.56-7.89c0.3-5.96-2.79-11.52-8.04-15.79c1.5-2.3,2.37-4.86,2.37-7.56
			c0-10.06-11.65-18.22-26.02-18.22c-14.37,0-26.02,8.16-26.02,18.22c0,2.38,0.67,4.65,1.86,6.73c-4.46,3.56-7.27,8.2-7.53,13.39
			c-0.18,3.52,0.85,6.9,2.79,9.96c-5.76,4.27-9.27,9.84-9.27,15.95c0,13.42,16.82,24.29,37.56,24.29s37.56-10.88,37.56-24.29
			C76.07,255.37,73.13,250.25,68.25,246.15z"/>
		<path class="st17" d="M62.73,259.89c-1.12-1.57-3.31-1.94-4.88-0.82L42.62,269.9v-32.42c0-1.93-1.58-3.5-3.5-3.5
			c-1.93,0-3.5,1.58-3.5,3.5v13.47l-6.95-6.95c-1.24-1.24-3.24-1.24-4.48,0l-0.48,0.48c-1.24,1.24-1.24,3.24,0,4.48l11.07,11.07
			c0.25,0.25,0.53,0.43,0.83,0.58v55.6c0,1.93,1.58,3.5,3.5,3.5c1.93,0,3.5-1.58,3.5-3.5v-37.81c0.23-0.1,0.45-0.22,0.66-0.37
			l18.62-13.26C63.48,263.65,63.85,261.45,62.73,259.89z"/>
	</g>
	<g>
		<path class="st1" d="M134.21,292.59L134.21,292.59c-1.4,0-2.55-1.15-2.55-2.55v-43.32c0-1.4,1.15-2.55,2.55-2.55l0,0
			c1.4,0,2.55,1.15,2.55,2.55v43.32C136.76,291.45,135.61,292.59,134.21,292.59z"/>
		<path class="st18" d="M160.97,241.73c0-33.84-11.98-61.27-26.76-61.27s-26.76,27.43-26.76,61.27S160.97,275.57,160.97,241.73z"/>
	</g>
</g>
</svg>
