<?xml version="1.0" encoding="utf-8"?>
<!-- Generator: Adobe Illustrator 23.1.0, SVG Export Plug-In . SVG Version: 6.00 Build 0)  -->
<svg version="1.1" id="Layer_1" xmlns="http://www.w3.org/2000/svg" xmlns:xlink="http://www.w3.org/1999/xlink" x="0px" y="0px"
	 viewBox="0 0 797.65 148.3" style="enable-background:new 0 0 797.65 148.3;" xml:space="preserve">
<style type="text/css">
	.st0{fill:#E9C9C5;}
	.st1{fill:#EE7C62;}
	.st2{fill:#AAC5F2;}
	.st3{fill:#867982;}
	.st4{fill:#3D3E6C;}
	.st5{fill:#6A98E5;}
	.st6{fill:#B9B9B9;}
	.st7{fill:#024069;}
	.st8{fill:#BA6449;}
	.st9{fill:#55494A;}
	.st10{fill:#DD8B68;}
	.st11{fill:#F1CCBC;}
	.st12{fill:#88543D;}
	.st13{fill:#B93939;}
	.st14{fill:#56A59E;}
	.st15{fill:#916A61;}
	.st16{fill:#5E1816;}
</style>
<g>
	<g>
		<path class="st0" d="M21.84,146.22c-1.01,0.39-4.19-0.06-5.14-0.13c-1.36-0.1-2.9,0.43-3.59-1.38c-0.7-1.83-0.77-3.33,1.2-4.5
			c1.47-0.35,3.58,2.79,4.49-0.63C20.22,140.99,28.32,145.04,21.84,146.22z"/>
		<path class="st1" d="M18.8,139.56c-0.91,3.43-3.02,0.28-4.49,0.63c-0.13-0.9-0.19-1.78,0.33-2.62c1.46,0.05,2.92,0.1,4.38,0.15
			C18.95,138.34,18.87,138.95,18.8,139.56z"/>
		<path class="st0" d="M48.41,143.05c-0.81-0.44,0.02-2.96,0.79-4.28c0.86,0.92,2.1,1.26,3.28,1.72c2.43,0.94,1.91-0.41,1.67-1.59
			c3,0.39,4.94,2.62,7.72,3.45c1.13,0.34,1.15,1.56,0.97,2.57c-0.25,1.43-1.55,1.03-2.58,1.18
			C57.68,146.47,49.91,144.35,48.41,143.05z"/>
		<path class="st1" d="M54.15,138.9c0.24,1.18,0.76,2.53-1.67,1.59c-1.19-0.46-2.42-0.8-3.28-1.72c-0.29-0.8-0.59-1.6-0.88-2.4
			c1.34-0.3,2.62-0.89,4.07-0.68C53.7,136.45,53.54,137.84,54.15,138.9z"/>
		<path class="st2" d="M8.86,34.53c2.96-2.86,7.07-3.66,11.02-4.74c0.64,0.75,1.42,0.46,2.29,0.37c3.2-0.32,6.38-1.43,9.64-0.33
			c2.86,0.82,5.45,0.3,7.91-1.16c3.76-2.23,7.98-3.68,12.05-5.39c2.47,1.67,6.23,2.35,6.02,6.08c-4.33,4.53-8.61,9.1-13.01,13.58
			c-4.24,4.31-3.4,9.17-2.31,14.13c0.97,4.41,1.79,8.85,2.68,13.28c0,0,0.03-0.03,0.03-0.03c-0.87-0.12-9.26,3.65-10.64,4.04
			c-4.02,1.13-8.04,1.82-12.26,0.82c-2.23-0.53-4.48-1.19-6.86-0.87c-2.76-1.29-0.65-3.58-1.4-5.28c2.31-1.83,0.79-4.3,1.37-6.42
			c-0.19-3.86,1.01-7.9-1.84-11.55c-0.66,0.66-1.14,1.14-1.62,1.62c-0.97,0.09-1.96,0.13-2.92,0.29c-5.17,0.88-5.42,0.77-6.74-3.44
			C3.15,45.05,8.91,34.72,8.86,34.53z"/>
		<path class="st3" d="M35.51,70.63c1.49-0.11,2.88,0.94,4.41,0.32c1.22,0.37,2.15-0.48,3.24-0.63
			c4.68,15.1,11.88,48.31,11.21,64.22c-1.34,1.95-6.54,4.9-8.13,4.23c-1.44-13.5-8.4-45.64-14.99-58.36
			c-1.48,10.63-0.65,20.94-3.69,31.02c-1.5,4.98-6.76,22.9-8.23,27.95c-0.83-0.92-4.42,1.11-5.67-0.61
			c0.21-4.48,3.35-27.81,3.94-32.24c0.34-2.54,0.13-5.14,0.17-7.71c-0.14-0.51-0.29-1.02-0.43-1.53c0.17-0.35-1.12-17.25-1.91-24.61
			c2.39-0.33,4.63,0.35,6.86,0.89c4.22,1.03,8.23,0.32,12.26-0.84c1.38-0.4,1.87-0.95,1-2.13C35.54,70.6,35.51,70.63,35.51,70.63z"
			/>
		<path class="st4" d="M21.59,24.65c-1.59-1.61-3.35-3.07-3.95-5.31c-1.34-5.07,1.48-8.73,7.36-8.89c3.5-0.09,4.19,2.82,5.5,4.93
			c0.38,2.61-3.1,4.4-1.8,7.45c0.36,0.85-2.26,2.31-4.27,2.28C23.49,25.1,22.54,24.82,21.59,24.65z"/>
		<path class="st1" d="M55.01,21.84c3.24-5.12,6.25-10.28,6.73-16.34c0.24-3.03,2.87-4.58,6.32-5.76c-0.53,2.02-1.34,3.76,1.03,5.14
			c0.96,0.56,1.23,2.61-0.24,3.1c-3.12,1.05-2.98,3.45-3.69,5.54c-1.4,4.14-2.12,8.49-5.02,12.15
			C58.43,24.39,56.72,23.12,55.01,21.84z"/>
		<path class="st1" d="M15.38,62.61c-0.58,2.12,0.94,4.59-1.37,6.42c-3.76-4.14-7.5-8.29-10.19-13.07c2.55-1.09,5.21-0.5,7.83-0.44
			C12.95,57.86,13.66,60.45,15.38,62.61z"/>
		<path class="st1" d="M21.59,24.65c0.95,0.16,1.89,0.44,2.85,0.46c2,0.03,4.63-1.43,4.27-2.28c-1.3-3.05,2.18-4.84,1.8-7.45
			c1.49,3.47,3.03,6.93-1.12,9.91c-0.92,0.66-0.51,1.6-0.5,2.44c-2.2,0.05-4.4,0.1-6.6,0.15C22.06,26.8,21.83,25.73,21.59,24.65z"/>
		<path class="st5" d="M55.01,21.84c1.71,1.28,3.42,2.56,5.14,3.84c1.18,2.21-0.3,3.09-2.36,3.68c0.21-3.73-3.55-4.41-6.02-6.08
			C51.72,20.84,53.51,21.59,55.01,21.84z"/>
		<path class="st5" d="M11.66,55.52c-2.63-0.06-5.29-0.65-7.83,0.44c-2.31-0.8-3.75-1.85-1.94-4.21c0.43-0.56,0.27-1.47,0.38-2.22
			c1.32,4.21,1.57,4.32,6.74,3.44c0.96-0.16,1.95-0.2,2.92-0.29C12.26,53.66,13.09,54.67,11.66,55.52z"/>
		<path class="st5" d="M22.29,27.87c2.2-0.05,4.4-0.1,6.6-0.15c1.39,0.25,2.83,0.45,2.92,2.1c-3.26-1.09-6.44,0.01-9.64,0.33
			c-0.87,0.09-1.65,0.38-2.29-0.37C19.82,28.31,21.51,28.54,22.29,27.87z"/>
		<line class="st6" x1="45.17" y1="70.32" x2="45.14" y2="70.35"/>
	</g>
	<g>
		<g>
			<path class="st1" d="M151.27,143.47c-1.65,0.16-3.31,0.31-4.96,0.47c-0.12-1.19-0.24-2.37-0.35-3.55
				c1.79-0.18,3.58-0.37,5.37-0.55C151.31,141.04,151.29,142.25,151.27,143.47z"/>
			<path class="st7" d="M146.05,142.74c1.61,0.39,3.6,0.46,5.23,0.13c0.63,1.57,6.23,1.89,5.17,3.82c-0.99,1.81-6.08,0.78-7.91,0.78
				C144.39,147.48,146.37,144.52,146.05,142.74z"/>
		</g>
		<path class="st0" d="M135.65,29.63c4.78-0.11,9.57-0.71,14.31,0.37c4.18,0.95,5.3,3.21,3.2,6.75c-1.58,2.66-3.27,5.27-5.13,7.76
			c-1.27,1.69-1.85,3.4-1.64,5.42c0.53,5.37-1.06,10.51-2.44,15.59c-0.9,3.32-0.5,6.44,0.03,9.6c0.34,2.04,0.48,4.03,0.23,6.06
			c-0.41,0.1-0.92,0.09-1.2,0.32c-4.93,3.95-10.21,3.38-15.68,1.19c-1.8-0.72-3.32-2.02-5.35-2.27c-1.43-0.67-2.11-1.75-1.91-3.24
			c1.2-8.9-3.04-16.93-4.74-25.36c-0.21-1.03-0.94-2.17-1.8-2.85c-4.22-3.33-6.67-7.99-10.38-11.69c-1.01-1.01-1.93-2.21-0.82-3.51
			c1.08-1.27,1.55-3.09,4.4-2.63c2.91,0.47,6.04-0.26,9.07-0.45c1.87-0.12,3.7,0.11,5.49,0.59l0.25,0.01
			c-1.06,1.26-0.97,2.68-0.69,4.13c-1.86,0.35-3.71,0.7-5.73,1.07c2.94,3.65,6.37,4.33,10.45,2.12c1.69-0.77,3.47-0.86,5.3-0.61
			c8.12,2.83,10.17,0.77,12.34-2.88c-2.53-0.54-5.05-1.08-7.56-1.62C135.65,32.21,135.65,30.92,135.65,29.63z"/>
		<path class="st3" d="M121.98,80.41c2.02,0.26,3.54,1.55,5.35,2.27c5.47,2.18,10.75,2.76,15.68-1.19c0.29-0.23,0.8-0.22,1.2-0.32
			c1.02,16.25,3.51,32.36,5.72,48.49c0.17,1.21,0.21,2.43,0.31,3.64c0.02,0.39,1.35,7.53,1.36,7.92c-0.82,0.04-4.1,0.42-5.7,0.24
			c-0.28-0.55-1.75-5.59-1.88-6.17c-3.07-13.46-7.66-26.58-10.59-40.61c-0.35,1.76-0.72,3.05-0.84,4.35
			c-1.01,10.78-1.89,21.58-2.16,32.41c-0.07,2.85-0.56,5.68-0.85,8.52c-1.58,0.05-3.17,0.09-4.75,0.14
			c-1.69-1.72-0.88-3.91-1.13-5.85c-1.49-11.62-3.42-23.22-2.95-34.97C120.99,92.99,121.55,86.7,121.98,80.41z"/>
		<path class="st8" d="M121.3,31.28c0.03-4.45,3.29-8.16,8.06-9.12c1.25-0.25,2.03,0.54,2.71,1.33c1.65,1.94,1.95,4.23,1.79,6.61
			c-2.56-0.18-4.92,0.86-7.37,1.07c-1.6,0.13-3.29,1.43-4.95,0.13L121.3,31.28z"/>
		<path class="st1" d="M121.54,31.3c1.66,1.3,3.34,0,4.95-0.13c2.45-0.2,4.81-1.24,7.37-1.07c0.72,0.25,1.23-0.18,1.79-0.48
			c0,1.29,0,2.59,0.01,3.88c-1.82,1.29-4.37,1.91-4.78,4.5c-1.83-0.25-3.61-0.16-5.3,0.61c-0.13-0.38-0.25-0.77-0.38-1.15
			c0.01-0.38-0.17-0.58-0.59-0.57c-1.24-0.5-2.26-1.51-3.75-1.47C120.57,33.97,120.49,32.55,121.54,31.3z M130.76,34.6
			c-1.19,0.13-2.15,0.24-3.11,0.35c-0.63,0.07-1.52-0.02-1.41,0.84c0.11,0.81,0.96,0.98,1.77,1.06
			C129.67,37.01,130.82,36.62,130.76,34.6z"/>
		<path class="st7" d="M130.02,147.46c-0.43,0.25-0.86,0.51-1.29,0.76c-0.73-0.06-1.47-0.12-2.2-0.17c-1.42,0-2.84,0-4.26-0.02
			c-0.67-0.01-1.36-0.05-1.57-0.79c-0.24-0.86,0.32-1.39,1.07-1.65c1.34-0.45,2.77-0.75,3.09-2.34c1.46-0.03,2.92-0.06,4.38-0.09
			c1.05,0.77,0.62,1.89,0.8,2.87C130.04,146.51,130.03,146.98,130.02,147.46z"/>
		<path class="st1" d="M129.25,143.16c-1.46,0.03-2.92,0.06-4.38,0.09c-0.02-1.05-0.03-2.1-0.05-3.14c1.58-0.05,3.17-0.09,4.75-0.14
			C129.46,141.03,129.36,142.1,129.25,143.16z"/>
		<path class="st8" d="M130.76,34.6c0.06,2.02-1.09,2.41-2.75,2.25c-0.81-0.08-1.66-0.25-1.77-1.06c-0.12-0.86,0.78-0.77,1.41-0.84
			C128.61,34.85,129.57,34.74,130.76,34.6z"/>
		<path class="st0" d="M125.19,37.47c-0.2-0.19-0.39-0.38-0.59-0.57C125.02,36.88,125.2,37.09,125.19,37.47z"/>
	</g>
	<g>
		<path class="st9" d="M559.08,87.83c4.11-3.72,8.21-7.43,12.32-11.15c0.41,0.39,0.81,0.79,1.22,1.18c-2,3.62-6.29,5.26-7.96,9.17
			c-5.6,4.23-9.13,10.46-14.43,14.99c-0.04,4.49-0.07,8.98-0.11,13.47c-0.03,2.89,0.81,3.42,3.58,1.98
			c4.95-2.57,9.17-1.69,12.09,2.07c2.76,3.55,3.02,7.36,0.4,11.08c-2.61,3.7-6.29,4.79-10.56,3.51c-4.35-1.3-6.44-4.95-6.18-10.64
			c0.05-1,0.48-1.97-0.59-2.65c-3.64-2.3-6.82-5.38-11.04-6.71c-0.63-0.2-1.31-0.2-1.97-0.29c-3.13-0.44-4.16,1.87-4.69,4.11
			c-0.69,2.89,1.78,2.46,3.51,2.74c3.34,0.56,5.39,2.61,6,5.87c0.63,3.31-0.84,5.87-3.67,7.55c-2.74,1.63-5.43,1.24-7.86-0.75
			c-0.22-0.18-0.07-0.79-0.1-1.2c1.4,0.32,2.8,0.82,4.22,0.91c2.61,0.17,4.5-1.11,5.34-3.58c0.85-2.49,0.03-4.61-2.07-6.1
			c-0.87-0.62-2.14-1.62-3.1-0.59c-1.13,1.22,0.13,2,1.12,2.64c1.26,0.82,1.82,1.93,1.21,3.38c-0.43,1.01-1.33,1.51-2.41,1.37
			c-1.55-0.2-2.27-1.18-2.23-2.75c0.03-1.22,0.62-3.13-1.41-2.88c-1.36,0.17-1.59,2.01-1.47,3.35c0.12,1.43,0.52,2.83,0.79,4.24
			c-3.07-0.27-3.3-3.33-2.61-4.57c2.57-4.6,0.72-10.22,3.85-14.57c2.59-3.59,5.86-6.73,7.5-10.98c1.97-6.85,6.57-8.89,13.41-8.1
			C555.19,94.38,557.43,91.15,559.08,87.83z M548.04,116.04c0-4.17-0.19-7.65,0.06-11.09c0.22-2.95-1.3-3.23-3.58-3.14
			c-5.59,0.24-5.63,5.55-8.99,8.87C540.82,110.68,543.8,113.89,548.04,116.04z M565.45,125.8c0.01-3.29-1.35-5.42-3.97-6.72
			c-2.46-1.23-5.93-1.35-6.66,0.87c-0.83,2.54,2.53,1.91,4.33,2.22c1.7,0.29,2.59,1.51,2.68,3.14c0.09,1.47-0.77,2.51-2.17,2.97
			c-1.6,0.51-2.96,0.11-3.85-1.37c-0.34-0.56-0.51-1.22-0.83-1.8c-0.53-0.98-1.5-1.57-2.46-1.19c-1.1,0.43-0.88,1.65-0.69,2.62
			c0.78,3.82,3.2,5.76,7.05,5.63C563.09,132.02,565.05,129.46,565.45,125.8z"/>
		<path class="st10" d="M559.08,87.83c-1.66,3.33-3.89,6.55-7.91,6.09c-6.84-0.79-11.44,1.25-13.41,8.1
			c-0.5,0.03-0.99,0.06-1.49,0.07c-12.85,0.32-14.98-2.05-12.01-14.71c1.8-7.68,5.17-14.65,12.76-18.51
			c2.1,0.44,2.37,2.16,3.23,3.81c2.48,4.72,2.23,10.73,6.78,14.44C551.04,87.59,555.14,86.41,559.08,87.83z"/>
		<path class="st11" d="M590.12,92.66c7.14,2.07,13.87-1.46,20.75-2.78c-0.25,8.4,3.37,14.82,6.09,21.71
			c2.54,6.44,6.48,12.03,6.63,19.91c-0.73,2.66-2.57,3.01-4.24,3.73c-0.31-6.49-4.35-9.78-6.91-14.26
			c-4.28-7.48-8.71-22.13-12.29-30.4c-1.94,1.67-1.61,10.66-2.05,12.9c-2.46,12.33-4.26,24.91-8.86,36.24
			c-0.29,0.71-0.85,1.16-1.45,1.2c-0.58,0.04-1.16,0.01-1.7-0.21c-0.8-0.32-1.31-1.4-1.21-2.52
			C586.35,122.96,589.76,108.13,590.12,92.66z"/>
		<path class="st11" d="M596.93,66.92c-2.52,1.72-5.04,3.44-7.57,5.17c-5.97,0.79-10.99,4.35-16.74,5.77
			c-0.41-0.4-0.81-0.79-1.22-1.18c-0.54-4.16,3.09-5.12,5.51-6.75c4.22-2.84,8.7-5.3,13.08-7.92c0.42,1.61,1.64,2.72,2.53,0.89
			c2.27-4.67,5.04-9.37,3.51-14.98c0.02-2.01,0.2-3.49-2.01-5.29c-3.73-3.04-2.1-7.61-0.8-11.65c2.07,2.9,4.62,4.88,8.61,4.04
			c-3.49,7.84-3.45,7.96,2.08,7.7c0.11,0.43,0.22,0.86,0.33,1.29c-1.52,0.24-3.35-0.53-4.57,1.5c2.46,1.05,4.8,2.26,4.43,5.5
			C601.71,56.31,599.32,61.61,596.93,66.92z"/>
		<path class="st10" d="M550.23,102.01c5.3-4.52,8.83-10.75,14.43-14.99c2.13,2.25,3.25,11.76,1.67,13.93
			c-0.94,1.28-2.3,1.18-3.62,1.17C558.55,102.11,554.39,102.06,550.23,102.01z"/>
		<path class="st12" d="M603.23,46.25c-6.5,0.33-6.54,0.17-2.45-9.45c-4.68,1.03-7.68-1.4-10.11-4.96c0.89-4.54,4.35-4.74,7.67-4.66
			c3.25,0.07,6.13,1.37,7.54,4.76c1.65,3.96,0.69,8.35,1.81,12.54C608.42,47.19,604.97,46.09,603.23,46.25z"/>
		<path class="st11" d="M547.04,87.12c-4.55-3.71-4.3-9.72-6.78-14.44c-0.87-1.65-1.13-3.37-3.23-3.81
			c3.22-3.18,7.11-1.81,10.67-1.21c2.02,0.34,2.08,2.31,1.62,4.42C548.22,77.02,546.95,81.98,547.04,87.12z"/>
		<path class="st10" d="M596.02,47.91c1.53,5.61-1.24,10.31-3.51,14.98c-0.89,1.83-2.11,0.72-2.53-0.89
			c0.03-0.33,0.17-0.69,0.08-0.97C587.9,54.76,590.88,50.85,596.02,47.91z"/>
		<path class="st10" d="M596.93,66.92c2.39-5.31,3.73-14.08,6.13-19.38c1.75,1.28,2.18,7.75,1.96,8.38
			c-0.65,3.71-1.31,7.42-1.96,11.12C601.01,67,598.97,66.96,596.93,66.92z"/>
		<path class="st12" d="M619.31,134.48c1.59-0.51,3.58-1.62,4.27-3.51c2.14-0.13,2.33,2.24,1.61,3.64
			c-0.52,1.01-1.35,1.93-2.22,2.68c-1.31,1.12-2.58,3.75-4.26,2.59C616.54,138.38,618.71,136.2,619.31,134.48z"/>
		<path class="st12" d="M585.56,137.81c0.62,0.46,3.36,0.93,4.07,0.95c1.08,0.03,0.16,1.09-0.22,2.1c-0.52,1.42-2.81,0.49-4.24,0.26
			c-1.96-0.31-5.46,0.31-5.39-2.01c0.05-2.05,2.92-1.71,4.99-1.62C585.07,137.51,585.33,137.63,585.56,137.81z"/>
		<path class="st11" d="M565.45,125.8c-0.4,3.66-2.36,6.22-6.57,6.36c-3.84,0.12-6.27-1.81-7.05-5.63c-0.2-0.96-0.41-2.18,0.69-2.62
			c0.96-0.38,1.94,0.2,2.46,1.19c0.31,0.58,0.49,1.24,0.83,1.8c0.9,1.48,2.25,1.89,3.85,1.37c1.41-0.45,2.26-1.49,2.17-2.97
			c-0.1-1.63-0.98-2.84-2.68-3.14c-1.8-0.31-5.16,0.32-4.33-2.22c0.73-2.22,4.2-2.1,6.66-0.87
			C564.1,120.38,565.46,122.51,565.45,125.8z"/>
		<path class="st11" d="M529.02,132.13c-0.28-1.41-0.67-2.81-0.79-4.24c-0.11-1.34,0.11-3.19,1.47-3.35
			c2.03-0.25,1.44,1.66,1.41,2.88c-0.04,1.57,0.68,2.55,2.23,2.75c1.08,0.14,1.97-0.36,2.41-1.37c0.62-1.45,0.06-2.56-1.21-3.38
			c-0.99-0.64-2.25-1.42-1.12-2.64c0.96-1.03,2.23-0.03,3.1,0.59c2.1,1.49,2.93,3.61,2.07,6.1c-0.85,2.47-2.73,3.75-5.34,3.58
			c-1.42-0.09-2.81-0.59-4.22-0.91C529.04,132.15,529.02,132.13,529.02,132.13z"/>
		<path class="st13" d="M588.17,95.97c-1.06-1.39-1.5-2.85-1.01-4.63c1.76-6.3,1.84-12.79,2.2-19.26c2.52-1.72,5.04-3.44,7.57-5.17
			c2.04,0.04,4.08,0.08,6.13,0.13c2.48,4.31,3.45,9.19,5.16,13.79c0.68,1.82,1.67,3.56,2.76,5.19c3.74,5.63,3.78,5.61-2.91,7.98
			C601.46,94.93,595.02,97.45,588.17,95.97z"/>
	</g>
	<g>
		<path class="st4" d="M789.95,71.55c0.19,5.81-2.25,11.09-3.39,16.63c-0.46,2.27-1.15,4.5-1.82,6.72
			c-0.32,1.05,0.15,1.82,0.59,2.66c3.19,6.11,6.12,12.34,8.79,18.69c0.34,0.81,0.82,1.54,0.23,2.41c-1.19,0.07-2.11,0.83-3.15,1.27
			c-2.11-1.29-2.55-3.75-3.87-5.59c-0.93-1.3-1.59-2.79-2.57-4.56c0,3.68,0,6.96,0,10.23c0,1,0.3,2.1-0.75,2.83
			c-1.08,0.06-2.16,0.12-3.24,0.18c-1.38-0.4-1.06-1.68-1.2-2.58c-2.04-12.98-4.07-25.97-5.15-39.08c-0.26-3.08-0.36-6.18-0.54-9.26
			c0.93,0.1,1.86,0.26,2.79,0.3c4.32,0.17,8.77,1.15,12.62-1.87C789.51,70.86,789.73,71.2,789.95,71.55z"/>
		<path class="st14" d="M789.29,70.51c-3.85,3.03-8.3,2.04-12.62,1.87c-0.93-0.04-1.86-0.19-2.79-0.3
			c-0.11-0.26-0.21-0.51-0.32-0.77c0.14-1.43,1.31-2.19,2.17-3.1c2.41-2.58,3.79-5.6,3.52-9.1c-0.25-3.32-0.96-6.61-1.41-9.92
			c-0.36-2.61-1.43-4.56-4.29-4.99c0.92-1.58,2.43-2.26,4.09-2.72c1.08-0.21,1.51,0.55,1.98,1.3c0.78,1.26,1.39,2.61,1.67,4.05
			c0.34,1.78,1.33,2.4,3.09,2.35c2.29-0.07,4.48-0.28,6.1-2.18c-0.34,3.31-2.04,6.24-2.63,9.48c-0.57,3.34,0.65,6.43,1.4,9.58
			C789.26,67.54,789.28,69.03,789.29,70.51z"/>
		<path class="st11" d="M773.55,44.2c2.86,0.44,3.93,2.38,4.29,4.99c0.45,3.31,1.16,6.6,1.41,9.92c0.27,3.5-1.12,6.52-3.52,9.1
			c-0.86,0.92-2.02,1.67-2.17,3.1c-3.43,1.89-4.25,5.6-6.02,8.64c-0.29,0.5-0.26,1.3-1,1.34c-0.84,0.04-1.1-0.74-1.36-1.35
			c-0.56-1.31-0.89-2.65,0.2-3.87c3.05-3.44,4.86-7.68,7.43-11.43c1.09-1.6,1.21-3.29,0.79-5.17c-0.68-3.01-1.2-6.07-1.73-9.11
			C771.46,48.06,771.63,45.88,773.55,44.2z"/>
		<path class="st11" d="M790.48,47c0.13,0,1.22,1.7,1.45,2.57c0.91,3.39,1.63,6.84,2.7,10.18c0.85,2.66,0.15,4.9-1.23,7.05
			c-1.06,1.64-1.87,3.48-3.45,4.76c-0.22-0.35-0.44-0.69-0.66-1.04c-0.02-1.49-0.03-2.97-0.05-4.45c2.23-3.59-0.05-6.52-1.4-9.58
			C788.44,53.24,790.13,50.3,790.48,47z"/>
		<path class="st15" d="M791.21,119.93c1.05-0.43,1.96-1.19,3.15-1.27c0.25,0.64,0.45,1.3,0.74,1.91c1.57,3.27,1.14,5.09-1.71,7.05
			c-0.72,0.5-1.59,1.09-2.35,0.54c-0.89-0.64-0.22-1.6,0.13-2.32C792.15,123.85,793.04,121.91,791.21,119.93z"/>
		<path class="st11" d="M780.77,123.01c1.08-0.06,2.16-0.12,3.24-0.18c0.03,1.01,0.05,2.01,0.08,3.02
			c-0.66,0.35-1.32,0.99-1.97,0.97c-1.26-0.03-2.59,1.78-3.78-0.09C779.27,125.58,781.48,125.24,780.77,123.01z"/>
		<path class="st15" d="M778.34,126.74c1.18,1.87,2.52,0.06,3.78,0.09c0.65,0.02,1.31-0.63,1.97-0.97c0.82,1.75,0.48,2.78-1.66,2.76
			c-2.33-0.02-4.67,0-7.63,0C776.14,127.3,777.2,126.94,778.34,126.74z"/>
		<polygon class="st1" points="790.35,46 790.34,45.94 790.47,45.96 		"/>
		<path class="st16" d="M788.77,49.69c-1.98,1.51-4.16,1.25-6.42,0.84c-1.73-0.32-2.57-1.13-2.52-2.95
			c0.04-1.47-0.27-2.91-0.77-4.31c-0.22-0.62-0.42-1.25-0.98-1.53c-0.65-0.33-1.13-0.92-1.45-1.58c-1.5-3.1-2-6.34-1.05-9.89
			c0.85-3.19,2.68-5.05,5.36-4.93c3.03,0.14,4.99,1.93,5.36,5.23c0.24,2.13,1.28,4.2,1.23,6.34c-0.02,0.76,1.48,3.91,2.11,5.21
			c0.16,0.32,0.27,0.67,0.32,1.02c0.09,0.71,0.27,1.28,0.44,1.83c0.51,1.68-0.06,3.52-1.45,4.59
			C788.86,49.65,788.79,49.69,788.77,49.69z"/>
	</g>
</g>
</svg>
