<?xml version="1.0" encoding="utf-8"?>
<!-- Generator: Adobe Illustrator 23.1.0, SVG Export Plug-In . SVG Version: 6.00 Build 0)  -->
<svg version="1.1" id="Layer_1" xmlns="http://www.w3.org/2000/svg" xmlns:xlink="http://www.w3.org/1999/xlink" x="0px" y="0px"
	 viewBox="0 0 590.65 304.3" style="enable-background:new 0 0 590.65 304.3;" xml:space="preserve">
<style type="text/css">
	.st0{fill:#A8B44E;}
	.st1{fill:#5E4627;}
	.st2{fill:#47C07D;}
	.st3{fill:#926D30;}
	.st4{fill:#75A14C;}
	.st5{fill:#138442;}
	.st6{fill:#EBE380;}
	.st7{fill:#4B3B29;}
	.st8{fill:#75A14A;}
	.st9{fill:#E6CC3C;}
	.st10{fill:#A02A44;}
	.st11{fill:#11437E;}
	.st12{fill:#CF7F3D;}
	.st13{fill:#EAC8BE;}
	.st14{fill:#F8B996;}
	.st15{fill:#864D08;}
	.st16{fill:#7E6949;}
	.st17{fill:#B59914;}
	.st18{fill:#C6AB11;}
	.st19{fill:#F65C00;}
</style>
<g>
	<g>
		<path class="st0" d="M1.83,162.38C0.71,85.99,25.26,23.69,56.65,23.23c31.4-0.46,57.76,61.09,58.88,137.48
			S2.96,238.77,1.83,162.38z"/>
		<path class="st1" d="M86.94,156.74c-1.83-1.7-4.73-1.6-6.43,0.24l-18.15,19.53v-71.33c0-2.5-2.05-4.55-4.55-4.55
			s-4.55,2.05-4.55,4.55v28.2l-6.12-6.73c-1.64-1.8-4.45-1.93-6.26-0.3c-1.8,1.64-1.93,4.45-0.3,6.26l12.67,13.93v41.13
			l-16.21-20.44c-1.55-1.96-4.43-2.29-6.39-0.74c-1.96,1.55-2.29,4.43-0.74,6.39l22.61,28.51c0.21,0.26,0.48,0.41,0.73,0.62v62.37
			c0,2.5,2.05,4.55,4.55,4.55s4.55-2.05,4.55-4.55v-74.51c0.01-0.01,0.03-0.02,0.04-0.03l24.77-26.66
			C88.88,161.34,88.78,158.44,86.94,156.74z"/>
	</g>
	<g>
		<path class="st2" d="M337.14,139.2C336.03,63.47,360.36,1.7,391.49,1.24s57.26,60.57,58.38,136.31
			C450.98,213.28,338.25,214.94,337.14,139.2z"/>
		<path class="st3" d="M421.52,133.61c-1.82-1.69-4.68-1.58-6.37,0.23l-17.99,19.36V82.49c0-2.48-2.03-4.51-4.51-4.51
			s-4.51,2.03-4.51,4.51v27.95l-6.07-6.67c-1.62-1.79-4.42-1.92-6.2-0.29c-1.79,1.62-1.92,4.42-0.29,6.2l12.56,13.81v40.78
			L372.06,144c-1.54-1.94-4.39-2.27-6.34-0.73c-1.94,1.54-2.27,4.39-0.73,6.34l22.42,28.27c0.2,0.26,0.48,0.41,0.72,0.61v61.84
			c0,2.48,2.03,4.51,4.51,4.51s4.51-2.03,4.51-4.51v-73.88c0.01-0.01,0.03-0.02,0.04-0.03l24.56-26.43
			C423.45,138.17,423.34,135.3,421.52,133.61z"/>
	</g>
	<g>
		<path class="st3" d="M194.3,238.9L194.3,238.9c-2.42,0-4.41-1.98-4.41-4.41v-74.92c0-2.42,1.98-4.41,4.41-4.41l0,0
			c2.42,0,4.41,1.98,4.41,4.41v74.92C198.71,236.92,196.72,238.9,194.3,238.9z"/>
		<path class="st4" d="M240.57,150.94c0-58.52-20.72-105.96-46.28-105.96s-46.28,47.44-46.28,105.96S240.57,209.46,240.57,150.94z"
			/>
	</g>
	<g>
		<path class="st5" d="M350.14,186.47c1.62-2.6,2.61-5.46,2.77-8.51c0.33-6.43-3.01-12.44-8.68-17.04c1.62-2.49,2.55-5.24,2.55-8.16
			c0-10.86-12.57-19.66-28.08-19.66c-15.51,0-28.08,8.8-28.08,19.66c0,2.57,0.72,5.01,2,7.26c-4.81,3.85-7.84,8.85-8.13,14.45
			c-0.19,3.8,0.92,7.45,3.01,10.75c-6.21,4.61-10.01,10.62-10.01,17.21c0,14.48,18.15,26.22,40.54,26.22
			c22.39,0,40.54-11.74,40.54-26.22C358.57,196.42,355.4,190.89,350.14,186.47z"/>
		<path class="st1" d="M318.7,265.84L318.7,265.84c-2.08,0-3.78-1.7-3.78-3.78V177.1c0-2.08,1.7-3.78,3.78-3.78l0,0
			c2.08,0,3.78,1.7,3.78,3.78v84.96C322.48,264.14,320.78,265.84,318.7,265.84z"/>
		<path class="st1" d="M317.92,219.98L317.92,219.98c-1.21-1.69-0.81-4.07,0.89-5.27l20.1-14.31c1.69-1.21,4.07-0.81,5.27,0.89v0
			c1.21,1.69,0.81,4.07-0.89,5.27l-20.1,14.31C321.5,222.07,319.13,221.67,317.92,219.98z"/>
		<path class="st1" d="M302.07,184.65l0.51-0.51c1.33-1.33,3.5-1.33,4.83,0l11.95,11.95c1.33,1.33,1.33,3.5,0,4.83l-0.51,0.51
			c-1.33,1.33-3.5,1.33-4.83,0l-11.95-11.95C300.74,188.14,300.74,185.98,302.07,184.65z"/>
	</g>
	<g>
		<path class="st6" d="M460.03,230.71c1.48-2.39,2.4-5.02,2.54-7.81c0.3-5.9-2.77-11.42-7.97-15.64c1.49-2.28,2.34-4.81,2.34-7.49
			c0-9.97-11.54-18.05-25.77-18.05c-14.23,0-25.77,8.08-25.77,18.05c0,2.36,0.66,4.6,1.84,6.67c-4.42,3.53-7.2,8.12-7.46,13.26
			c-0.18,3.49,0.85,6.83,2.76,9.87c-5.71,4.23-9.19,9.75-9.19,15.8c0,13.29,16.66,24.07,37.21,24.07s37.21-10.77,37.21-24.07
			C467.78,239.85,464.87,234.77,460.03,230.71z"/>
		<path class="st7" d="M454.56,244.32c-1.11-1.55-3.28-1.92-4.84-0.81l-15.08,10.74v-32.12c0-1.91-1.56-3.47-3.47-3.47
			c-1.91,0-3.47,1.56-3.47,3.47v13.34l-6.88-6.88c-1.22-1.22-3.21-1.22-4.43,0l-0.47,0.47c-1.22,1.22-1.22,3.21,0,4.43l10.97,10.97
			c0.24,0.24,0.53,0.43,0.82,0.57v55.08c0,1.91,1.56,3.47,3.47,3.47c1.91,0,3.47-1.56,3.47-3.47v-37.46
			c0.23-0.1,0.45-0.21,0.66-0.36l18.45-13.13C455.3,248.05,455.67,245.87,454.56,244.32z"/>
	</g>
	<g>
		<path class="st8" d="M539.97,80.82c22.56-0.33,41.5,43.89,42.3,98.77s-80.88,56.08-81.69,1.2S517.41,81.16,539.97,80.82"/>
		<path class="st1" d="M561.73,176.75c-1.32-1.22-3.39-1.15-4.62,0.17l-13.04,14.03V139.7c0-1.8-1.47-3.27-3.27-3.27
			c-1.8,0-3.27,1.47-3.27,3.27v20.26l-4.4-4.83c-1.18-1.29-3.2-1.39-4.49-0.21c-1.29,1.18-1.39,3.2-0.21,4.49l9.1,10.01v29.55
			l-11.65-14.69c-1.12-1.41-3.18-1.65-4.59-0.53c-1.41,1.12-1.65,3.18-0.53,4.59l16.24,20.48c0.15,0.19,0.35,0.3,0.53,0.44v44.81
			c0,1.8,1.47,3.27,3.27,3.27c1.8,0,3.27-1.47,3.27-3.27v-53.53c0.01-0.01,0.02-0.01,0.03-0.02l17.8-19.15
			C563.12,180.05,563.05,177.97,561.73,176.75z"/>
	</g>
	<g>
		<path class="st9" d="M109.43,195.38c-0.81-54.88,16.83-99.64,39.38-99.97s41.5,43.89,42.3,98.77S110.23,250.26,109.43,195.38z"/>
		<path class="st3" d="M170.57,191.33c-1.32-1.22-3.39-1.15-4.62,0.17l-13.04,14.03v-51.25c0-1.8-1.47-3.27-3.27-3.27
			s-3.27,1.47-3.27,3.27v20.26l-4.4-4.83c-1.18-1.29-3.2-1.39-4.49-0.21c-1.29,1.18-1.39,3.2-0.21,4.49l9.1,10.01v29.55
			l-11.65-14.69c-1.12-1.41-3.18-1.65-4.59-0.53c-1.41,1.12-1.65,3.18-0.53,4.59l16.24,20.48c0.15,0.19,0.35,0.3,0.53,0.44v44.81
			c0,1.8,1.47,3.27,3.27,3.27s3.27-1.47,3.27-3.27v-53.53c0.01-0.01,0.02-0.01,0.03-0.02l17.8-19.15
			C171.97,194.63,171.89,192.55,170.57,191.33z"/>
	</g>
	<g>
		<circle class="st10" cx="575.1" cy="235.61" r="7.38"/>
		<path class="st11" d="M562.06,262.18c0,0-6.88,10.32,6.88,10.32s20.64-10.32,20.64-10.32s3.08-9.66-11.36-5.69
			C563.78,260.46,562.06,262.18,562.06,262.18z"/>
		<path class="st12" d="M582.48,249.49c0,0-14.08,29.22-20.11,17.98c-6.03-11.24,4.02-24.73,4.02-24.73S578.46,233.76,582.48,249.49
			z"/>
		<path class="st13" d="M580.05,243.78c0,0,5.44,8.68,3.62,9.55s-5.35-2.6-5.35-2.6L580.05,243.78z"/>
	</g>
	<g>
		<path class="st14" d="M244.89,263.95l-0.05,6.38c0,0,0.24,1.45,4.46,0.58l-0.04-7.95L244.89,263.95z"/>
		<path class="st15" d="M244.84,270.33c0,0-6.78,0.5-8.27,2.89c-1.49,2.39,13.32,2.39,13.32,2.39v-4.43L244.84,270.33z"/>
		<path class="st14" d="M263.3,249.07l6.38,0.05c0,0,1.45-0.24,0.58-4.46l-7.95,0.04L263.3,249.07z"/>
		<path class="st15" d="M269.68,249.12c0,0,0.5,6.78,2.89,8.27c2.39,1.49,2.39-13.32,2.39-13.32h-4.43L269.68,249.12z"/>
		<path class="st14" d="M241.45,188.15l2.3-9.2v-1.84c0,0-4.39-0.32-4.58-5.5c-0.19-5.17,2.85-7.31,2.85-7.31l8.67,2.85l-2.33,9.83
			l1.23,11.9L241.45,188.15z"/>
		<circle class="st14" cx="238.84" cy="170.97" r="1.23"/>
		<path class="st16" d="M239.93,164.67c0,0,5.22-0.06,6.65,3.13c1.43,3.2,2.38,6.9,3.83,7.4s2.32-3.26,2.19-5.2
			c-0.12-1.94-0.62-5.64-2.79-6.83c-2.17-1.19-4.1-1.56-5.11-1.48C242.94,161.83,238.91,163.63,239.93,164.67z"/>
		<path class="st17" d="M236.31,216.01c0,0-2.06,16.11,5.1,23.19c7.16,7.08,8.28,9.67,24.32,10.87v-6.73c0,0-10.69-0.69-15.52-7.16
			c-4.83-6.47-1.38-22.59-1.38-22.59L236.31,216.01z"/>
		<path class="st18" d="M246.58,213.94l-2.33,52.17h7.67c0,0,5.08-41.91,5.08-49.59C257,208.85,246.58,213.94,246.58,213.94z"/>
		<path class="st14" d="M228.56,206.73c0,0-4.53,5.82-2.2,6.86c2.33,1.03,5.17-5.17,5.17-5.17L228.56,206.73z"/>
		<path class="st14" d="M269.68,209.2c0,0,0.19,7.37,2.64,6.7c2.46-0.67,0.72-7.28,0.72-7.28L269.68,209.2z"/>
		<path class="st19" d="M243.01,181.94c0,0-10.15-0.69-17.05,26.91l5.75,3.45l4.6-9.2v13.8H257v-20.7c0,0,12,9.2,12,16.1h6.4
			c0,0-3.21-14.27-12.26-22.68c-8.43-7.82-14.31-7.97-14.31-7.97s-0.71,2-3.01,2C243.53,183.65,243.01,181.94,243.01,181.94z"/>
	</g>
</g>
</svg>
