<?xml version="1.0" encoding="utf-8"?>
<!-- Generator: Adobe Illustrator 23.1.0, SVG Export Plug-In . SVG Version: 6.00 Build 0)  -->
<svg version="1.1" id="Layer_1" xmlns="http://www.w3.org/2000/svg" xmlns:xlink="http://www.w3.org/1999/xlink" x="0px" y="0px"
	 viewBox="0 0 45 25" style="enable-background:new 0 0 45 25;" xml:space="preserve">
<style type="text/css">
	.st0{fill:#C2D42E;}
</style>
<path class="st0" d="M43.55,6.2c-0.16-0.4-0.36-0.76-0.59-1.08c-0.77-1.02-1.93-1.68-2.77-2.04C35.21,1.14,30.55,0.5,27.5,0.3
	c-0.95-0.07-1.86-0.1-2.74-0.08c-6.94,0.19-11.62,3.86-14.12,6.5C9.92,7.54,9.21,8.43,8.52,9.41c0,0,0,0,0,0
	c-0.72,1.02-1.44,2.17-2.13,3.36c-3.58,6.1-5.3,11.41-5.3,11.41c-0.03,0.09-0.19,0.58,0.02,0.68c0,0,0.28,0.12,0.78-0.59l0,0
	C9.6,13.93,22.16,20.31,32.57,18l0,0l0.01,0c0.18-0.04,0.37-0.08,0.55-0.13l0,0c0,0,0,0,0,0c0.6-0.16,1.2-0.35,1.78-0.57
	c5.81-2.05,7.87-5.38,8.59-7.52c0.07-0.17,0.13-0.33,0.19-0.5c0.23-0.9,0.21-1.5,0.21-1.54c0,0,0,0,0-0.01
	c-0.05-0.54-0.17-1.04-0.35-1.5C43.55,6.22,43.55,6.21,43.55,6.2"/>
</svg>
