<?xml version="1.0" encoding="utf-8"?>
<!-- Generator: Adobe Illustrator 23.1.0, SVG Export Plug-In . SVG Version: 6.00 Build 0)  -->
<svg version="1.1" id="Layer_1" xmlns="http://www.w3.org/2000/svg" xmlns:xlink="http://www.w3.org/1999/xlink" x="0px" y="0px"
	 viewBox="0 0 325 75" style="enable-background:new 0 0 325 75;" xml:space="preserve">
<style type="text/css">
	.st0{fill:#C9C9C9;}
	.st1{fill:#D8D8D8;}
	.st2{fill:#FFFFFF;}
	.st3{fill:#EAEAEA;}
</style>
<g>
	<path class="st0" d="M39.77,36.61c0,0,1.55,2.08,1.4,5.75C41,46.02,38.45,47.93,35.7,49c0,0-0.26,0.12-0.28,0.06
		c-0.02-0.06-0.03-0.02,0.19-0.33c0.21-0.31,1.6-2.19,1.01-5.74c-0.58-3.54,0-4.68,2.78-6.33C39.41,36.66,39.68,36.5,39.77,36.61"/>
	<path class="st1" d="M55.91,62.52L55.91,62.52c3.79-9.97-2.12-20.85-12.13-27.01c-0.19-0.11-0.45-0.22-0.55-0.13
		c-0.09,0.08,0,0.29,0,0.29c5.4,14.89-4.32,20.19-4.63,29.56h0c0,0-0.24,7.62,3.67,8.95c0.33,0.09,1.05,0.21,2.12-0.01
		c4.59-1.15,7.75-4.53,9.69-7.69C54.81,65.26,55.42,63.79,55.91,62.52C55.93,62.48,55.91,62.52,55.91,62.52"/>
	<path class="st2" d="M40.81,50.48c-0.02-0.04-0.04-0.07-0.06-0.08c-0.07-0.05-0.2-0.02-0.2-0.02c-14.54,5.13-22.03-2.51-30.36,3.38
		c-1.02,0.72-1.93,1.58-2.73,2.53l0,0c0,0-2.23,2.42-2.26,4.56c0,0-0.11,3.54,7.74,4.99c1.16,0.21,2.26,0.35,3.29,0.43
		c5.62,0.41,9.35-1.04,11.47-2.18c0,0,0.01-0.01,0.02-0.01h0c4.21-2.43,8.15-6.71,12.65-12.73c0.18-0.24,0.4-0.56,0.41-0.57
		C40.84,50.64,40.84,50.54,40.81,50.48"/>
	<path class="st3" d="M30.6,49.16L30.6,49.16C19.23,38.98,21.11,27.73,7.74,23.9c-0.33-0.09-0.64-0.16-0.94-0.21l0,0
		c-0.38-0.06-0.72-0.1-1.04-0.11c-0.88-0.06-1.99,0-2.84,0.56c-0.7,0.46-1.08,1.31-1.29,1.99c-0.02,0.09-0.36,1.45-0.16,3.42
		c0.2,1.79,0.81,4.4,2.45,7.43c0.15,0.29,0.31,0.58,0.48,0.86c0,0.01,0.01,0.01,0.01,0.02v0c4.65,7.74,14.05,10.65,25.7,11.74
		c0.11,0.01,0.52,0.02,0.6-0.1C30.8,49.35,30.6,49.16,30.6,49.16"/>
	<path class="st0" d="M44.21,9.21c-0.04-0.4-0.09-0.77-0.14-1.13c-0.28-1.68-0.81-3.07-1.27-4.03c-0.91-1.65-2.06-2.2-2.44-2.35
		c-1.09-0.33-2.49-0.27-3.93,0.57l0,0c0,0-7.63,4.01-11.88,12.28c-0.76,1.41-1.34,2.86-1.75,4.34c0,0.01,0,0.01,0,0.01l0,0
		c-1.78,6.5-0.21,13.76,4.59,22.62c0.05,0.08,0.19,0.3,0.37,0.3c0.21,0,0.27-0.45,0.3-0.7c0.06-0.41,0.13-0.81,0.21-1.2
		c0.39-1.91,0.93-3.56,1.47-4.9l0,0c0,0,1.49-4.52,7.16-10.54c3.48-3.98,6.74-7.5,7.32-12.21h0c0,0,0,0,0-0.01
		C44.33,11.3,44.34,10.28,44.21,9.21"/>
	<path class="st2" d="M70.84,30.23c-0.04-0.36-0.12-0.7-0.24-1.01c-0.39-0.99-1.19-1.78-1.78-2.27c-3.59-2.68-7.21-4.24-9.62-5.08
		c-0.75-0.27-1.48-0.5-2.19-0.68c-5.64-1.4-10.25,0.52-12.85,2.09c-0.77,0.5-1.55,1.06-2.32,1.7c0,0,0,0,0,0
		c-0.81,0.66-1.65,1.43-2.47,2.24c-4.25,4.12-6.83,8.03-6.83,8.03c-0.05,0.07-0.28,0.43-0.13,0.55c0,0,0.2,0.16,0.76-0.3l0,0
		c8.54-6.63,17.25,1.33,26.17,1.79l0,0h0.01c0.16,0.01,0.32,0.01,0.47,0.02v0c0,0,0,0,0,0c0.52,0.01,1.04-0.01,1.57-0.06
		c5.15-0.36,7.55-2.59,8.62-4.15c0.09-0.12,0.18-0.24,0.26-0.36c0.39-0.68,0.51-1.16,0.51-1.2c0,0,0,0,0,0
		c0.08-0.45,0.09-0.88,0.05-1.29C70.84,30.24,70.84,30.24,70.84,30.23"/>
	<path class="st1" d="M32.31,46.34c0.28,0.07,0.74-0.36,0.9-0.51c1.7-1.76-0.24-4.71,0.43-7.22l0.11-0.44c0.01-0.05,0.01-0.1,0-0.12
		c-0.01-0.01-0.01-0.01-0.01-0.02c-0.03-0.02-0.07,0-0.1,0.02c-1.55,1.2-2.46,2.89-2.56,4.63c0,0,0-0.01,0,0
		c-0.01,0.1-0.01,0.21-0.01,0.32c-0.01,0.4,0.02,1.59,0.57,2.61C31.74,45.79,32.04,46.27,32.31,46.34"/>
	<g>
		<g>
			<path class="st2" d="M160.89,16.13v-1.07c-0.01-0.72-0.67-1.43-1.52-1.43h-1.91c-0.85,0-1.51,0.71-1.52,1.43v1.07
				c-4.73,1.03-8.26,4.97-8.26,9.67c0,5.48,4.8,9.93,10.73,9.93c5.93,0,10.73-4.45,10.73-9.93
				C169.16,21.09,165.63,17.16,160.89,16.13z M158.42,31.76c-3.33,0-6.03-2.7-6.03-6.03c0-3.33,2.7-6.03,6.03-6.03
				c3.32,0,6.02,2.7,6.02,6.03C164.44,29.06,161.74,31.76,158.42,31.76z"/>
			<path class="st2" d="M177.08,37.44l-37.76-0.02c-0.67,0.01-1.34,0.58-1.34,1.32v1.66c0,0.74,0.67,1.31,1.34,1.32l16.4,0v2.77
				l-10.71-0.01c-0.61,0.01-1.21,0.53-1.21,1.19v1.5c0,0.66,0.6,1.18,1.21,1.19l21.46,0l0,3.24l-21.46-0.03
				c-0.61,0.01-1.21,0.53-1.21,1.19v0.12c0,0.01,0,0.02,0,0.02l0,1.35c0,0.67,0.6,1.18,1.21,1.19h0.6v5.31
				c0,0.99,0.84,1.84,1.83,1.84l23.71,0c0.62-0.01,1.22-0.53,1.22-1.2v-1.51c0-0.67-0.6-1.19-1.22-1.19l-20.6,0.01v-3.23l18.99,0.02
				c1.08,0.02,1.93-0.95,1.89-1.82l0.01-7.32c0-1-0.85-1.85-1.84-1.85l-8.93,0v-2.77l16.42-0.01c0.67-0.01,1.34-0.58,1.34-1.31
				v-1.65C178.41,38.02,177.75,37.45,177.08,37.44z"/>
		</g>
		<g>
			<g>
				<path class="st2" d="M224.14,15.82L224.14,15.82L224.14,15.82c-0.07-0.74-0.68-1.32-1.43-1.32h-3.87
					c-0.66,0.04-1.32,0.63-1.32,1.34v1.65c0,0.73,0.66,1.3,1.33,1.31h0.37l-0.01,22.96c0.01,0.78,0.67,1.54,1.52,1.54h1.91
					c0.84,0,1.5-0.76,1.52-1.54l0-25.81C224.16,15.91,224.15,15.86,224.14,15.82z"/>
			</g>
			<g>
				<path class="st2" d="M211.58,36.94c-1.66-0.89-4.55-2.67-6.69-5.75c-0.85-1.22-1.44-2.54-1.89-4.14
					c-0.04-0.16-0.08-0.34-0.12-0.51c-0.08-0.32-0.15-0.65-0.22-0.99c-0.12-0.61-0.21-1.24-0.26-1.89h0.01
					c-0.07-0.66-0.11-1.29-0.14-1.81v-2.56c0-0.38-0.1-0.72-0.28-1.02c-0.3-0.49-0.81-0.81-1.39-0.81l-3.8-0.01
					c-0.44,0.03-0.88,0.29-1.15,0.66c-0.16,0.22-0.25,0.48-0.25,0.76v1.75c0,0.55,0.36,1.01,0.82,1.24
					c0.41,0.17,1.01,0.13,1.01,0.13c0,0.17-0.02,0.34-0.04,0.56c-0.04,0.4-0.08,0.82-0.1,1.12c-0.05,0.62-0.15,1.3-0.27,1.89
					c-0.14,0.79-0.3,1.41-0.32,1.5c-0.46,1.59-1.04,2.91-1.89,4.14c-2.14,3.09-5.03,4.86-6.69,5.75c-0.19,0.1-0.97,0.53-0.41,1.7
					l0.39,0.69l0.3,0.47c0.74,0.95,1.34,0.74,2.03,0.42c0,0,0.34-0.15,0.9-0.45c1.91-1.02,6.39-3.79,8.57-8.12l0.04-0.09l0.04,0.09
					c2.2,4.37,6.74,7.15,8.62,8.15c0.53,0.28,0.84,0.42,0.84,0.42c0.7,0.32,1.3,0.53,2.04-0.42l0.3-0.47l0.4-0.69
					C212.54,37.47,211.77,37.04,211.58,36.94z"/>
				<path class="st2" d="M224.11,48.39c0-0.99-0.84-1.84-1.83-1.84l-25.89-0.01c-0.69,0.01-1.35,0.58-1.35,1.31v1.67
					c0,0.73,0.66,1.31,1.35,1.32l22.78-0.01l0,10.26c0.01,0.79,0.67,1.55,1.52,1.55h1.91c0.85,0,1.51-0.76,1.51-1.55L224.11,48.39z"
					/>
			</g>
		</g>
		<g>
			<path class="st2" d="M276.64,37.44l-37.75-0.02c-0.68,0.01-1.35,0.58-1.35,1.32v1.66c0,0.74,0.67,1.31,1.35,1.32l16.39,0l0,2.77
				l-10.7-0.01c-0.61,0.01-1.21,0.53-1.21,1.19v1.5c0,0.66,0.6,1.18,1.21,1.19l21.46,0v3.24l-21.46-0.03
				c-0.61,0.01-1.21,0.53-1.21,1.19v0.12c0,0.01,0,0.02,0,0.02v1.35c0,0.67,0.6,1.18,1.21,1.19h0.6v5.31c0,0.99,0.84,1.84,1.83,1.84
				l23.71,0c0.62-0.01,1.22-0.53,1.22-1.2v-1.51c0-0.67-0.6-1.19-1.22-1.19l-20.6,0.01v-3.23l18.98,0.02
				c1.08,0.02,1.93-0.95,1.88-1.82l0-7.32c0-1-0.83-1.85-1.83-1.85l-8.93,0l0-2.77l16.41-0.01c0.68-0.01,1.33-0.58,1.33-1.31v-1.65
				C277.97,38.02,277.31,37.45,276.64,37.44z"/>
			<path class="st2" d="M268.87,16.45l-24.64-0.01c-0.61,0-1.21,0.52-1.21,1.18v1.5c0,0.66,0.6,1.18,1.21,1.19h0.6v11.13
				c0,1,0.84,1.84,1.83,1.84l22.15-0.01c1.08,0.02,1.92-0.95,1.88-1.82V18.3C270.7,17.3,269.87,16.45,268.87,16.45z M262.29,20.32
				h3.45l0.03,9.06h-16.01v-9.05L262.29,20.32z"/>
		</g>
		<g>
			<path class="st2" d="M303.76,16.07l0-1.04c-0.01-0.71-0.65-1.39-1.48-1.39h-1.86c-0.82,0-1.46,0.69-1.47,1.39v1.04
				c-4.61,1-8.04,4.83-8.04,9.4c0,5.34,4.68,9.66,10.44,9.66c5.77,0,10.44-4.32,10.44-9.66C311.8,20.89,308.37,17.07,303.76,16.07z
				 M301.36,31.27c-3.24,0-5.86-2.63-5.86-5.86c0-3.24,2.62-5.87,5.86-5.87c3.24,0,5.86,2.63,5.86,5.87
				C307.22,28.64,304.59,31.27,301.36,31.27z"/>
			<path class="st2" d="M324.09,15.78L324.09,15.78c-0.07-0.73-0.68-1.31-1.44-1.31h-3.87c-0.66,0.04-1.32,0.63-1.32,1.34v1.65
				c0,0.73,0.66,1.3,1.34,1.31h0.36l0,24.98h-6.47c-0.67,0.01-1.33,0.58-1.33,1.31v1.65c0,0.73,0.66,1.3,1.33,1.31h6.47v3.74
				c0.01,0.78,0.67,1.55,1.51,1.55h1.91c0.85,0,1.51-0.77,1.52-1.55l0.01-35.84C324.11,15.87,324.09,15.83,324.09,15.78
				L324.09,15.78z"/>
			<path class="st2" d="M322.67,58.29l-19.22,0.01v-6.06c0-0.76-0.65-1.51-1.47-1.56l-4.09,0c-0.62,0.01-1.18,0.52-1.18,1.18v0.11
				c0,0.01,0,0.02,0,0.03v1.36c0,0.66,0.6,1.17,1.21,1.18h0.58l0,6.19c0,0.99,0.84,1.85,1.83,1.85l22.34,0
				c0.68,0,1.35-0.58,1.35-1.32v-1.66C324.02,58.87,323.35,58.3,322.67,58.29z"/>
			<path class="st2" d="M313.83,37.44l-24.82-0.02c-0.68,0.01-1.35,0.58-1.35,1.32v1.66c0,0.73,0.67,1.31,1.35,1.31l9.92,0v5.18
				c0.01,0.78,0.66,1.55,1.51,1.55h1.91c0.84,0,1.51-0.76,1.52-1.55v-5.18l9.95,0c0.68-0.01,1.33-0.58,1.33-1.31v-1.65
				C315.16,38.02,314.51,37.45,313.83,37.44z"/>
		</g>
		<g>
			<path class="st2" d="M113.25,44.64c-1.49-1.13-4.6-3.6-6.73-7.56c-0.8-1.48-1.6-3.38-1.9-5.21c-0.09-0.51-0.19-1.08-0.19-1.09
				c-0.17-0.95-0.3-2.15-0.4-3.32c-0.11-1.37-0.17-2.7-0.17-3.51v-2.69c0-1-0.75-1.82-1.67-1.82l-3.8-0.01
				c-0.69,0.05-1.4,0.67-1.4,1.42v1.75c0,0.77,0.7,1.38,1.42,1.39h0.38v1.88c-0.02,0.58-0.04,1.14-0.08,1.59
				c-0.1,1.48-0.29,2.89-0.58,4.18c-0.45,2.04-1.11,3.86-1.96,5.43c-2.13,3.96-5.24,6.43-6.73,7.56c-0.63,0.48-0.85,1.36,0.1,2.53
				l0.34,0.4l0.24,0.26c0.71,0.69,1.6,0.73,2.38,0.15c0.49-0.37,0.99-0.77,1.51-1.22c0.31-0.28,0.61-0.56,0.92-0.85
				c0.67-0.66,1.32-1.32,1.94-2c0.93-1.02,1.78-2.06,2.53-3.13c0.31-0.45,0.62-0.93,0.92-1.42c0.05-0.09,0.11-0.17,0.16-0.26
				c0.32-0.55,0.61-1.1,0.86-1.62c0.51,1.06,1.2,2.26,1.93,3.29c0.76,1.07,1.61,2.11,2.54,3.13c0.62,0.68,1.27,1.34,1.94,2
				c0.31,0.29,0.61,0.58,0.92,0.86c0.51,0.44,1.02,0.85,1.51,1.22c0.78,0.58,1.67,0.55,2.38-0.15l0.24-0.26l0.34-0.39
				C114.1,46.01,113.88,45.13,113.25,44.64z"/>
			<path class="st2" d="M126.85,15.93c0-0.05-0.01-0.09-0.01-0.13v-0.01l0,0c-0.07-0.74-0.68-1.31-1.44-1.31h-3.86
				c-0.66,0.04-1.32,0.63-1.32,1.34v1.65c0,0.73,0.65,1.3,1.33,1.31h0.36V29.6l-8.39,0c-0.68,0.01-1.34,0.58-1.34,1.31v1.65
				c0,0.73,0.66,1.3,1.34,1.31l8.39,0l0,27.14c0,0.79,0.67,1.55,1.52,1.55h1.91c0.85,0,1.51-0.76,1.51-1.55L126.85,15.93z"/>
		</g>
	</g>
</g>
</svg>
