<?xml version="1.0" encoding="utf-8"?>
<!-- Generator: Adobe Illustrator 23.1.0, SVG Export Plug-In . SVG Version: 6.00 Build 0)  -->
<svg version="1.1" id="Layer_1" xmlns="http://www.w3.org/2000/svg" xmlns:xlink="http://www.w3.org/1999/xlink" x="0px" y="0px"
	 viewBox="0 0 435 435" style="enable-background:new 0 0 435 435;" xml:space="preserve">
<style type="text/css">
	.st0{fill:#FFFFFF;}
</style>
<g>
	<path class="st0" d="M1.77,411.28c3.22-9.69,3.99-19.87,5.8-29.84c4.23-23.34,8.11-46.75,12.08-70.14
		c0.36-2.11,1.45-3.59,2.88-5.03C95.47,233.35,168.39,160.41,241.34,87.5c6.14-6.13,11.43-6.14,17.56-0.03
		c30.42,30.36,60.8,60.75,91.16,91.16c6.09,6.1,5.78,11.21-0.88,17.87c-53.3,53.29-106.62,106.56-159.93,159.84
		c-18.71,18.69-37.64,37.16-55.96,56.23c-5.17,5.38-11.41,5.4-17.5,6.5c-29.18,5.29-58.43,10.21-87.63,15.41
		c-12.44,2.21-21.42-2.85-25.41-14.72c-0.19-0.56-0.65-1.04-0.98-1.55C1.77,415.91,1.77,413.59,1.77,411.28z M76.41,340.85
		c0-5.29-0.2-10.58,0.07-15.85c0.19-3.69-0.64-5.28-4.79-5.07c-7.25,0.36-14.55,0.37-21.79-0.01c-3.77-0.2-4.77,1.4-5.3,4.6
		c-2.57,15.42-5.27,30.82-7.93,46.23c-0.41,2.37-0.21,4.33,1.76,6.25c7.45,7.27,14.71,14.72,21.98,22.17
		c1.52,1.56,2.88,1.97,5.18,1.55c16.02-2.96,32.09-5.7,48.16-8.39c2.72-0.46,3.98-1.4,3.91-4.42c-0.19-7.76-0.23-15.53,0.04-23.29
		c0.12-3.52-1.35-4.03-4.36-3.98c-10.4,0.14-20.82-0.14-31.22,0.15c-4.31,0.12-6.29-0.74-5.82-5.57
		C76.77,350.47,76.41,345.65,76.41,340.85z"/>
	<path class="st0" d="M436.17,100.85c-0.5,0.6-1.28,1.13-1.47,1.82c-2.83,9.87-9.02,17.43-16.2,24.44
		c-10.52,10.28-20.8,20.8-31.23,31.18c-7.27,7.24-11.71,7.27-18.9,0.08c-29.82-29.78-59.61-59.58-89.4-89.39
		c-7.12-7.12-7.1-11.82-0.01-18.93c11.79-11.82,23.54-23.67,35.42-35.4c18.15-17.91,42.25-17.82,60.3,0.19
		c15.91,15.88,31.63,31.95,47.66,47.69c6.78,6.66,10.41,14.93,13.83,23.45C436.17,90.93,436.17,95.89,436.17,100.85z"/>
</g>
</svg>
