<?xml version="1.0" encoding="utf-8"?>
<!-- Generator: Adobe Illustrator 23.1.0, SVG Export Plug-In . SVG Version: 6.00 Build 0)  -->
<svg version="1.1" id="Layer_1" xmlns="http://www.w3.org/2000/svg" xmlns:xlink="http://www.w3.org/1999/xlink" x="0px" y="0px"
	 viewBox="0 0 438 329" style="enable-background:new 0 0 438 329;" xml:space="preserve">
<style type="text/css">
	.st0{fill:#FFFFFF;}
	.st1{fill:#77CCD8;}
	.st2{fill:#BEE7EC;}
	.st3{fill:#BEE6EC;}
</style>
<g>
	<path class="st0" d="M276.97,0.4c1.33,0,2.67,0,4,0c0.29,0.71,0.9,0.84,1.59,0.92c34.52,3.84,59.85,21.33,75.92,51.94
		c6.63,12.63,11.07,26.28,16.36,39.52c1.07,2.69,2.36,3.72,5.35,3.69c14.47-0.17,28.95,0.13,43.42-0.17
		c6.65-0.14,11.57,1.83,14.35,8.09c0,2,0,4,0,6c-3.16,5.18-3.47,11.21-5.02,16.86c-1.91,6.96-5.66,10.03-12.84,10.12
		c-4.57,0.06-9.14,0.01-14.24,0.01c0.7,1.07,0.89,1.5,1.21,1.81c11.31,11.21,16.93,24.78,16.94,40.69c0,13.15,0.04,26.29-0.01,39.44
		c-0.05,12.39-4.02,23.47-11.57,33.23c-1.64,2.12-2.32,4.19-2.31,6.82c0.07,14.31,0.19,28.62-0.06,42.93
		c-0.25,14.05-10.99,25.09-25.03,26.22c-10.37,0-20.75,0-31.12,0c-14.14-1.1-24.66-11.97-25.04-26.13c-0.21-7.82-0.29-15.65,0-23.46
		c0.15-3.99-1.16-5.02-5.04-4.99c-26.13,0.15-52.26,0.07-78.39,0.07c-43.6,0-87.21,0.06-130.81-0.11c-4.39-0.02-5.74,1.11-5.53,5.54
		c0.36,7.64,0.22,15.31,0.01,22.96c-0.38,14.12-10.92,25.01-25.04,26.12c-10.37,0-20.75,0-31.12,0
		c-14.01-1.08-24.78-12.16-25.03-26.26c-0.25-14.32-0.12-28.65-0.07-42.98c0.01-2.42-0.44-4.44-2.02-6.43
		c-8.14-10.28-11.99-22.04-11.88-35.17c0.11-12.66,0.04-25.32-0.01-37.98c-0.02-4.69,0.63-9.28,1.68-13.82
		c2.55-10.96,8.38-20.03,16.98-28.5c-5.1,0-9.35,0.01-13.61,0c-8.66-0.02-11.92-2.74-14.12-10.99c-1.52-5.69-1.99-11.69-4.85-17
		c0-1.67,0-3.33,0-5c2.71-6.02,7.38-8.2,13.91-8.08c14.47,0.27,28.95-0.06,43.42,0.19c3.47,0.06,4.85-1.16,6-4.21
		c3.69-9.76,7.68-19.41,11.57-29.1c11.27-28.1,30.8-47.6,59.6-57.64c7.02-2.45,14.46-2.86,21.48-5.15c1.67,0,3.33,0,5,0
		c1.28,1.58,3.07,0.97,4.65,0.97c35.56,0.03,71.12,0.04,106.68,0.01C273.89,1.38,275.67,1.95,276.97,0.4z M219.12,123.72
		c0,0.01,0,0.02,0,0.02c34.83,0,69.66,0.02,104.48-0.04c2.11,0,5.63,1.24,3.62-3.6c-5.67-13.66-10.47-27.71-16.76-41.07
		c-7.17-15.23-19.77-23.53-36.91-23.6c-36.49-0.15-72.99-0.16-109.48,0c-16.73,0.07-29.11,8.19-36.22,22.99
		c-6.32,13.15-11.04,27.06-16.77,40.5c-1.88,4.4-0.37,4.86,3.55,4.85C149.46,123.68,184.29,123.72,219.12,123.72z M91.54,219.12
		c5.15,0,10.31,0.1,15.45-0.05c1.79-0.05,3.59-0.64,5.34-1.14c9.8-2.78,13.6-9.68,9.84-19.07c-6.09-15.19-16.85-26.2-31.96-32.47
		c-12.88-5.35-27.48,0.96-33.24,13.75c-5.87,13.02-0.89,29.2,10.74,35.79C75.29,220.22,83.45,219.24,91.54,219.12z M345.17,219.37
		c4.1,0,7.42,0.03,10.75,0c16.37-0.15,27.08-10.82,27.28-27.16c0.23-18.93-17.05-32.65-34.1-26.35
		c-16.06,5.94-27.29,17.51-33.49,33.49c-3.51,9.03,0.35,15.46,9.56,18.41C332.03,219.96,339,219.13,345.17,219.37z"/>
	<path class="st1" d="M276.97,0.4c-1.29,1.55-3.07,0.98-4.66,0.98C236.75,1.4,201.19,1.4,165.63,1.37c-1.58,0-3.37,0.61-4.65-0.97
		C199.64,0.4,238.3,0.4,276.97,0.4z"/>
	<path class="st2" d="M52.99,329.36c-0.02-0.28-0.04-0.55-0.06-0.83c10.37,0,20.75,0,31.12,0c-0.02,0.28-0.04,0.55-0.06,0.83
		C73.66,329.36,63.33,329.36,52.99,329.36z"/>
	<path class="st3" d="M385.01,328.53c-0.02,0.28-0.04,0.55-0.06,0.83c-10.33,0-20.66,0-31,0c-0.03-0.28-0.05-0.55-0.06-0.83
		C364.27,328.53,374.64,328.53,385.01,328.53z"/>
</g>
</svg>
