<?xml version="1.0" encoding="utf-8"?>
<!-- Generator: Adobe Illustrator 23.1.0, SVG Export Plug-In . SVG Version: 6.00 Build 0)  -->
<svg version="1.1" id="Layer_1" xmlns="http://www.w3.org/2000/svg" xmlns:xlink="http://www.w3.org/1999/xlink" x="0px" y="0px"
	 viewBox="0 0 435 436" style="enable-background:new 0 0 435 436;" xml:space="preserve">
<style type="text/css">
	.st0{fill:#FFFFFF;}
	.st1{fill:#FDF6F0;}
	.st2{fill:#FCECDF;}
	.st3{fill:#FCBA82;}
	.st4{fill:#FDD5B3;}
	.st5{fill:#FCC99F;}
	.st6{fill:#FBC598;}
</style>
<g>
	<path class="st0" d="M161.88,436.27c-2.27,0-4.55,0-6.82,0c-14.94-1.13-29.9-2.08-44.82-3.41c-50.29-4.5-89.47-36.88-103.07-85.48
		c-7.7-27.5-5.83-55.89-6.99-83.99c0-29.2,0-58.4,0-87.61c0.44-16.47,0.96-32.94,1.3-49.42C2.81,61.41,38.36,17.52,101.96,4.98
		c31.29-6.16,63.39-3.79,95.16-4.54c15.17,0,30.35,0,45.52,0c28.95,0.65,57.91,0.52,86.79,3.48c44.82,4.6,84.66,37.36,97.51,80.58
		c8.34,28.03,6.83,56.93,8.11,85.59c0,8.34,0,16.68,0,25.02c0,15.94,0,31.87,0,47.81c0,7.58,0,15.16,0,22.74
		c-0.44,14.76-0.97,29.53-1.3,44.29c-1.53,68.82-43.04,115.21-110.46,122.97c-14.31,1.65-28.75,2.25-43.13,3.34
		c-3.03,0-6.07,0-9.1,0c-7.09-2.55-14.38-0.57-21.57-0.94c-5.69,0-11.38,0-17.07,0c-10.64,0-21.29,0-31.93,0
		c-6.82,0-13.64-0.01-20.45-0.01C173.99,435.64,167.82,433.79,161.88,436.27z M224.03,397.06c23.98,0.38,54.64,0.14,85.33-1.62
		c51.62-2.95,79.75-27.45,84.47-78.73c5.53-60.09,3.01-120.45,1.59-180.69c-0.45-19.05-2.24-38.21-12.02-55.45
		c-17.79-31.36-47.85-38.35-80.3-40.04c-50.96-2.65-101.96-1.16-152.94-0.91c-21.3,0.1-42.94,1.11-63.01,9.66
		C51.54,64.46,41.65,95.24,40.4,130.1c-2.24,62.5-3.23,125.01,0.85,187.51c2.68,41.07,28.45,69.6,68.3,75.54
		C145.37,398.48,181.35,397.04,224.03,397.06z"/>
	<path class="st1" d="M0.17,263.4l-0.47,0.01l-0.47-0.02c0-29.19,0-58.39,0-87.58c0.31-0.02,0.63-0.03,0.94-0.01
		C0.17,204.99,0.17,234.19,0.17,263.4z"/>
	<path class="st2" d="M435.05,242.93c0-15.94,0-31.87,0-47.81l0.47-0.01l0.47,0.03c0,15.92,0,31.85,0,47.77
		C435.68,242.94,435.37,242.95,435.05,242.93z"/>
	<path class="st1" d="M242.64-0.5c0,0.32,0.01,0.63,0.01,0.95c-15.17,0-30.35,0-45.52,0c0-0.31,0.01-0.63,0.01-0.94
		C212.3-0.5,227.47-0.5,242.64-0.5z"/>
	<path class="st3" d="M200.5,435.33c10.64,0,21.29,0,31.93,0c-0.01,0.31-0.03,0.63-0.04,0.94c-10.62,0-21.23,0-31.85,0
		C200.53,435.96,200.52,435.65,200.5,435.33z"/>
	<path class="st1" d="M436,195.14l-0.47-0.03l-0.47,0.01c0-8.34,0-16.68,0-25.02c0.31-0.02,0.63-0.01,0.94,0.01
		C436,178.45,436,186.8,436,195.14z"/>
	<path class="st1" d="M435.05,242.93c0.32,0.02,0.63,0.01,0.95-0.02c0,7.58,0,15.17,0,22.75l-0.47,0.02l-0.47-0.01
		C435.06,258.09,435.05,250.51,435.05,242.93z"/>
	<path class="st4" d="M249.5,435.33c7.19,0.37,14.48-1.61,21.57,0.94c-7.2,0-14.41,0-21.61,0
		C249.47,435.96,249.49,435.65,249.5,435.33z"/>
	<path class="st5" d="M200.5,435.33c0.02,0.31,0.03,0.63,0.05,0.94c-6.82,0-13.65,0-20.47,0c-0.01-0.32-0.02-0.64-0.03-0.95
		C186.87,435.32,193.68,435.33,200.5,435.33z"/>
	<path class="st4" d="M180.05,435.32c0.01,0.32,0.02,0.64,0.03,0.95c-6.07,0-12.13,0-18.2,0
		C167.82,433.79,173.99,435.64,180.05,435.32z"/>
	<path class="st6" d="M249.5,435.33c-0.01,0.31-0.03,0.63-0.04,0.94c-5.69,0-11.37,0-17.06,0c0.01-0.31,0.02-0.63,0.04-0.94
		C238.13,435.33,243.81,435.33,249.5,435.33z"/>
	<path class="st0" d="M218.14,329.54c-60.53,0.56-111.47-48.89-112.02-108.75c-0.58-63.31,48.79-114.01,111.35-114.33
		c60.27-0.32,111.14,49.55,111.63,109.41C329.62,279.28,281.13,328.95,218.14,329.54z M217.46,290.97
		c39.98,0.17,72.72-32.27,72.94-72.27c0.23-40.44-32.1-73.18-72.45-73.35c-39.83-0.17-72.85,32.5-73.07,72.3
		C144.66,257.82,177.31,290.8,217.46,290.97z"/>
	<path class="st0" d="M308.45,101.59c0.09-14.09,11.76-25.86,25.6-25.82c13.97,0.04,25.86,12.23,25.78,26.4
		c-0.08,13.75-12.11,25.77-25.81,25.79C319.8,127.98,308.36,116.18,308.45,101.59z"/>
</g>
</svg>
