<?xml version="1.0" encoding="utf-8"?>
<!-- Generator: Adobe Illustrator 23.1.0, SVG Export Plug-In . SVG Version: 6.00 Build 0)  -->
<svg version="1.1" id="Layer_1" xmlns="http://www.w3.org/2000/svg" xmlns:xlink="http://www.w3.org/1999/xlink" x="0px" y="0px"
	 viewBox="0 0 435 388" style="enable-background:new 0 0 435 388;" xml:space="preserve">
<style type="text/css">
	.st0{fill:#FBD7E4;}
	.st1{fill:#FBEFF3;}
	.st2{fill:#FCF1F5;}
	.st3{fill:#FFFFFF;}
</style>
<g>
	<path class="st0" d="M34.16,1.43c0.03-0.25,0.04-0.5,0.05-0.76c121.77,0,243.55,0,365.32,0c0.02,0.24,0.04,0.48,0.06,0.72
		c-1.47,0.06-2.94,0.16-4.41,0.16c-83.37,0.01-166.74,0.02-250.12,0C108.1,1.55,71.13,1.48,34.16,1.43z"/>
	<path class="st1" d="M-1.17,36.94c0.25-0.02,0.5-0.03,0.74-0.02c0.05,1.62,0.14,3.23,0.14,4.85c0.01,51.37,0.02,102.74,0,154.11
		C-0.3,224-0.38,252.11-0.42,280.22l-0.37,0l-0.37-0.02C-1.17,199.11-1.17,118.03-1.17,36.94z"/>
	<path class="st1" d="M435.07,36.93c0.24-0.01,0.49,0,0.73,0.02c0,81.08,0,162.17,0,243.25l-0.37,0.02c0,0-0.37,0-0.37,0
		c-0.05-1.32-0.14-2.64-0.14-3.97c-0.01-78.45-0.01-156.91,0-235.36C434.93,39.57,435.02,38.25,435.07,36.93z"/>
	<path class="st2" d="M320.83,388.25c-0.01,0.25-0.01,0.5-0.02,0.75c-69,0-137.99,0-206.99,0c0-0.25-0.01-0.5-0.02-0.75
		c1.62-0.05,3.23-0.13,4.85-0.13c65.92-0.01,131.84-0.01,197.76,0C317.89,388.12,319.36,388.2,320.83,388.25z"/>
	<path class="st3" d="M320.83,388.25c-1.47-0.04-2.94-0.13-4.41-0.13c-65.92-0.01-131.84,0-197.76,0c-1.62,0-3.23,0.08-4.85,0.13
		c-7.47-0.81-13.13-4.32-15.97-11.42c-2.61-6.52-1.57-12.73,2.89-18.18c4.38-5.37,10.47-6.65,17.01-6.65
		c15.61,0,31.22-0.1,46.82,0.08c3.33,0.04,4.93-0.85,5.93-4.13c2.85-9.26,6.08-18.41,9.15-27.6c1.58-4.73,1.57-4.74-3.69-4.74
		c-46.38,0-92.77,0.03-139.15-0.02c-17.17-0.02-30.68-10.03-35.57-26.3c-0.88-2.93-1.11-6.05-1.64-9.08
		c0.04-28.11,0.11-56.22,0.13-84.33c0.02-51.37,0.01-102.74,0-154.11c0-1.62-0.09-3.23-0.14-4.85C0.95,19.15,10.43,7.33,27.2,2.27
		c2.32-0.7,4.64-0.58,6.96-0.84c36.97,0.04,73.94,0.11,110.91,0.12c83.37,0.02,166.74,0.01,250.12,0c1.47,0,2.94-0.1,4.41-0.16
		c19.74,0.61,34.38,15.46,35.47,35.53c-0.05,1.32-0.14,2.64-0.14,3.97c-0.01,78.45-0.01,156.91,0,235.36c0,1.32,0.09,2.64,0.14,3.97
		c-1.97,21.87-16.65,35.39-38.58,35.4c-46,0.02-91.99,0.01-137.99,0.01c-5.04,0-5.03,0-3.39,4.92c3.03,9.07,6.19,18.1,8.99,27.23
		c0.98,3.18,2.37,4.34,5.81,4.29c15.77-0.2,31.55-0.12,47.32-0.07c6.36,0.02,12.39,1.21,16.59,6.59
		C343.3,370.73,336.54,386.08,320.83,388.25z M217.36,219.12c54.84,0,109.67-0.03,164.51,0.07c3.79,0.01,5.28-0.61,5.27-4.95
		c-0.17-53.36-0.15-106.73-0.02-160.09c0.01-3.94-1.04-4.87-4.91-4.87c-109.97,0.1-219.94,0.1-329.91-0.02
		c-4.06,0-4.8,1.24-4.79,4.99c0.12,53.22,0.13,106.43-0.02,159.65c-0.01,4.29,1.1,5.34,5.36,5.33
		C107.69,219.08,162.52,219.13,217.36,219.12z"/>
</g>
</svg>
