<?xml version="1.0" encoding="utf-8"?>
<!-- Generator: Adobe Illustrator 23.1.0, SVG Export Plug-In . SVG Version: 6.00 Build 0)  -->
<svg version="1.1" id="Layer_1" xmlns="http://www.w3.org/2000/svg" xmlns:xlink="http://www.w3.org/1999/xlink" x="0px" y="0px"
	 viewBox="0 0 435 338" style="enable-background:new 0 0 435 338;" xml:space="preserve">
<style type="text/css">
	.st0{fill:#FFFFFF;}
	.st1{fill:#E7EBFB;}
</style>
<g>
	<path class="st0" d="M13.73,338.17c-1.47,0-2.94,0-4.41,0c-4.42-2.69-8.38-5.74-8.95-11.44c0.05-1.17,0.13-2.34,0.13-3.51
		C0.51,238,0.51,152.78,0.51,67.56c0-1.17-0.1-2.34-0.16-3.51c1.09-10.2,6.03-17.52,15.74-21.42C49.55,29.2,83.01,15.77,116.42,2.23
		c3.34-1.35,4.27-0.88,4.22,2.82c-0.16,14.09-0.07,28.19-0.07,42.28c0,79.28-0.01,158.56,0.02,237.85c0,2.71,0.04,4.87-3.18,6.31
		C82.81,306.94,48.28,322.58,13.73,338.17z"/>
	<path class="st1" d="M-0.37,64.08c0.24-0.05,0.48-0.05,0.72-0.03c0.05,1.17,0.16,2.34,0.16,3.51c0.01,85.22,0,170.43-0.01,255.65
		c0,1.17-0.09,2.34-0.13,3.51c-0.25,0.01-0.49,0.01-0.74-0.02C-0.37,239.17-0.37,151.62-0.37,64.08z"/>
	<path class="st1" d="M435,273.83l-0.36,0.03c0,0-0.36-0.01-0.36-0.01c-0.05-1.17-0.15-2.34-0.15-3.51
		c-0.01-84.92,0-169.85,0.01-254.77c0-1.17,0.1-2.34,0.16-3.51c0.24-0.03,0.48-0.02,0.72,0.02C435,99.33,435,186.58,435,273.83z"/>
	<path class="st0" d="M145.05,0.53c15.54,5.17,30.54,10.14,45.53,15.14c31.67,10.56,63.32,21.16,95.02,31.63
		c2.9,0.96,4.08,2.18,4.07,5.47c-0.11,93.53-0.11,187.05-0.02,280.58c0,3.83-0.86,4.31-4.4,3.13
		c-45.36-15.17-90.76-30.22-136.19-45.21c-2.91-0.96-4.11-2.17-4.1-5.48c0.11-93.82,0.09-187.64,0.09-281.46
		C145.05,3.31,145.05,2.29,145.05,0.53z"/>
	<path class="st0" d="M434.28,12.06c-0.05,1.17-0.15,2.34-0.16,3.51c-0.01,84.92-0.01,169.85-0.01,254.77c0,1.17,0.1,2.34,0.15,3.51
		c-0.72,10.09-5.37,17.78-14.8,21.6c-35.03,14.19-70.17,28.1-105.27,42.11c-0.05-1.61-0.15-3.22-0.15-4.83
		c-0.01-93.04,0.02-186.07-0.1-279.11c0-3.77,1.04-5.56,4.53-7.13c32.32-14.51,64.53-29.26,96.79-43.91
		C425.02-1.83,431.94,1.65,434.28,12.06z"/>
</g>
</svg>
