<?xml version="1.0" encoding="utf-8"?>
<!-- Generator: Adobe Illustrator 23.1.0, SVG Export Plug-In . SVG Version: 6.00 Build 0)  -->
<svg version="1.1" id="Layer_1" xmlns="http://www.w3.org/2000/svg" xmlns:xlink="http://www.w3.org/1999/xlink" x="0px" y="0px"
	 viewBox="0 0 435 305" style="enable-background:new 0 0 435 305;" xml:space="preserve">
<style type="text/css">
	.st0{fill:#FFFFFF;}
	.st1{fill:#F8B7CE;}
	.st2{fill:#FBE7EE;}
	.st3{fill:#FBE6ED;}
	.st4{fill:#FAE2EB;}
</style>
<g>
	<path class="st0" d="M246.41-0.45c3.72,0,7.43,0,11.15,0c0.9,1.2,2.23,0.85,3.42,0.89c10.5,0.31,21.01,0.64,31.51,0.85
		c28.27,0.59,56.5,1.83,84.53,5.73c23.9,3.32,40.23,16.22,47.87,39.43c3.31,10.04,4.23,20.54,5.4,30.95
		c2.44,21.65,3.34,43.41,3.93,65.18c0,7.46,0,14.91,0,22.37c-0.34,7.87-0.71,15.75-1,23.62c-0.75,19.92-2.38,39.77-5.77,59.42
		c-4.86,28.22-20.49,44.3-48.76,49.05c-28.23,4.74-56.9,4.98-85.43,6.21c-18.07,0.78-36.17,0.8-54.25,1.16c-14.27,0-28.54,0-42.8,0
		c-30.9-0.77-61.82-0.97-92.68-2.95c-16.48-1.06-33.06-1.52-49.3-4.71c-22.51-4.42-37.83-17.34-44.4-39.75
		C7,247.34,6.02,237.33,4.9,227.36C2.46,205.7,1.61,183.93,1,162.16c0-7.15,0-14.3,0-21.44c0.31-6.64,0.76-13.27,0.91-19.92
		C2.38,99.46,4.4,78.26,7.72,57.19c4.21-26.67,21.42-45.35,47.37-49.66C73.4,4.49,91.9,3.28,110.41,2.41
		c21.46-1,42.95-1.41,64.43-2.08c5.24-0.01,10.48-0.02,15.73-0.03c17.62,0.06,35.25,0.13,52.87,0.19
		C244.52,0.5,245.61,0.47,246.41-0.45z M286.93,152.6c-38.41-21.86-75.8-43.15-113.51-64.61c0,43.3,0,85.75,0,128.98
		C211.34,195.46,248.67,174.3,286.93,152.6z"/>
	<path class="st1" d="M246.41-0.45c-0.8,0.92-1.89,0.95-2.98,0.95c-17.62-0.06-35.25-0.13-52.87-0.19c0.04-0.25,0.07-0.51,0.11-0.76
		C209.25-0.45,227.83-0.45,246.41-0.45z"/>
	<path class="st2" d="M239.02,304.41c-0.01,0.26-0.03,0.52-0.03,0.77c-14.24,0-28.49,0-42.73,0c-0.01-0.26-0.02-0.51-0.03-0.77
		C210.48,304.41,224.75,304.41,239.02,304.41z"/>
	<path class="st2" d="M434.22,142.58c0.26-0.01,0.52,0,0.78,0.04c0,7.43,0,14.86,0,22.3c-0.26,0.04-0.51,0.05-0.77,0.04
		C434.23,157.49,434.23,150.03,434.22,142.58z"/>
	<path class="st3" d="M0.23,140.75c0.25-0.04,0.51-0.05,0.77-0.04c0,7.15,0,14.3,0,21.44c0,0-0.39,0-0.39,0l-0.38-0.04
		C0.23,155,0.23,147.88,0.23,140.75z"/>
	<path class="st4" d="M190.67-0.45c-0.03,0.25-0.07,0.51-0.11,0.76c-5.24,0.01-10.48,0.02-15.73,0.03c0.02-0.26,0.03-0.53,0.04-0.79
		C180.15-0.45,185.41-0.45,190.67-0.45z"/>
</g>
</svg>
