<?xml version="1.0" encoding="utf-8"?>
<!-- Generator: Adobe Illustrator 23.1.0, SVG Export Plug-In . SVG Version: 6.00 Build 0)  -->
<svg version="1.1" id="Layer_1" xmlns="http://www.w3.org/2000/svg" xmlns:xlink="http://www.w3.org/1999/xlink" x="0px" y="0px"
	 viewBox="0 0 236 439" style="enable-background:new 0 0 236 439;" xml:space="preserve">
<style type="text/css">
	.st0{fill:#FFFFFF;}
</style>
<g>
	<path class="st0" d="M70.71,342.34c0-30.16-0.08-60.32,0.1-90.48c0.02-4.15-1.06-5.3-5.24-5.25c-19.66,0.22-39.33-0.01-58.99,0.18
		c-4.14,0.04-5.79-0.71-5.74-5.39c0.26-22.66,0.23-45.32,0.02-67.99c-0.04-4.31,1.35-5.22,5.38-5.18
		c19.83,0.19,39.66-0.02,59.49,0.15c3.85,0.03,5.11-0.91,5.08-4.96c-0.13-21.99-0.48-44.01,0.25-65.98
		c0.87-26.09,9.09-49.7,27.62-68.74C112.23,14.8,129.23,7.1,148.17,3.55c16.16-3.03,32.43-2.77,48.71-1.39
		c10.42,0.88,20.8,2.24,31.2,3.24c6.91,0.66,6.93,0.55,6.93,7.24c0,18.66-0.12,37.33,0.1,55.99c0.05,4.06-1.24,5.03-5.08,4.95
		c-10.83-0.23-21.67-0.33-32.49,0.04c-9.4,0.32-18.52,2.3-26.32,8.01c-10.33,7.57-14.69,18.45-15.08,30.68
		c-0.54,17.15-0.03,34.32-0.26,51.49c-0.05,3.98,1.41,4.62,4.93,4.6c21.99-0.14,43.99,0,65.99-0.15c3.81-0.03,5.05,0.5,4.32,4.83
		c-3.45,20.43-6.48,40.93-9.67,61.41c-0.38,2.46-1.16,4.93-1.07,7.37c0.17,4.77-2.15,5.55-6.37,5.49
		c-17.16-0.22-34.33-0.09-51.49-0.09c-6.53,0-6.54,0-6.54,6.34c0,59.49,0.01,118.98-0.01,178.47c0,7.17,0.74,6.35-6.45,6.36
		c-24.16,0.03-48.33-0.12-72.49,0.12c-4.87,0.05-6.5-0.94-6.45-6.22C70.86,402.33,70.71,372.33,70.71,342.34z"/>
</g>
</svg>
