<?xml version="1.0" encoding="utf-8"?>
<!-- Generator: Adobe Illustrator 23.1.0, SVG Export Plug-In . SVG Version: 6.00 Build 0)  -->
<svg version="1.1" id="Layer_1" xmlns="http://www.w3.org/2000/svg" xmlns:xlink="http://www.w3.org/1999/xlink" x="0px" y="0px"
	 viewBox="0 0 47 22" style="enable-background:new 0 0 47 22;" xml:space="preserve">
<style type="text/css">
	.st0{fill:#C2D42E;}
</style>
<path class="st0" d="M46.6,9.59c-0.05,0.43-0.15,0.83-0.29,1.21c-0.47,1.19-1.42,2.14-2.13,2.72c-4.3,3.21-8.64,5.08-11.53,6.09
	c-0.9,0.32-1.77,0.59-2.63,0.81c-6.77,1.68-12.28-0.62-15.4-2.51c-0.93-0.59-1.85-1.27-2.79-2.03c0,0,0,0,0,0
	c-0.97-0.79-1.98-1.71-2.96-2.68C3.78,8.24,0.7,3.56,0.7,3.56C0.64,3.48,0.36,3.05,0.54,2.9c0,0,0.24-0.19,0.91,0.36l0,0
	c10.23,7.95,20.67-1.59,31.38-2.14l0,0h0.01c0.19-0.01,0.38-0.02,0.57-0.02v0c0,0,0,0,0,0c0.63-0.01,1.25,0.02,1.88,0.07
	c6.17,0.43,9.05,3.1,10.33,4.98c0.11,0.14,0.22,0.29,0.31,0.43c0.47,0.81,0.61,1.39,0.62,1.43c0,0,0,0,0,0.01
	c0.1,0.54,0.11,1.06,0.06,1.55C46.6,9.58,46.6,9.59,46.6,9.59"/>
</svg>
