<?xml version="1.0" encoding="utf-8"?>
<!-- Generator: Adobe Illustrator 23.1.0, SVG Export Plug-In . SVG Version: 6.00 Build 0)  -->
<svg version="1.1" id="Layer_1" xmlns="http://www.w3.org/2000/svg" xmlns:xlink="http://www.w3.org/1999/xlink" x="0px" y="0px"
	 viewBox="0 0 71 74" style="enable-background:new 0 0 71 74;" xml:space="preserve">
<style type="text/css">
	.st0{fill:#55A37C;}
	.st1{fill:#4E803B;}
	.st2{fill:#DAE145;}
	.st3{fill:#90BC43;}
	.st4{fill:#C2D42E;}
</style>
<g>
	<path class="st0" d="M39.38,35.61c0,0,1.55,2.08,1.4,5.75c-0.16,3.66-2.71,5.58-5.46,6.65c0,0-0.26,0.12-0.28,0.06
		C35.01,48,35,48.04,35.22,47.73c0.21-0.31,1.6-2.19,1.01-5.74c-0.58-3.54,0-4.68,2.78-6.33C39.02,35.66,39.29,35.5,39.38,35.61"/>
	<path class="st1" d="M55.52,61.52L55.52,61.52c3.79-9.97-2.12-20.85-12.13-27.01c-0.19-0.11-0.45-0.22-0.55-0.13
		c-0.09,0.08,0,0.29,0,0.29c5.4,14.89-4.32,20.19-4.63,29.56h0c0,0-0.24,7.62,3.67,8.95c0.33,0.09,1.05,0.21,2.12-0.01
		c4.59-1.15,7.75-4.53,9.69-7.69C54.42,64.26,55.03,62.79,55.52,61.52C55.54,61.48,55.52,61.52,55.52,61.52"/>
	<path class="st2" d="M40.42,49.48c-0.02-0.04-0.04-0.07-0.06-0.08c-0.07-0.05-0.2-0.02-0.2-0.02c-14.54,5.13-22.03-2.51-30.36,3.38
		c-1.02,0.72-1.93,1.58-2.73,2.53l0,0c0,0-2.23,2.42-2.26,4.56c0,0-0.11,3.54,7.74,4.99c1.16,0.21,2.26,0.35,3.29,0.43
		c5.62,0.41,9.35-1.04,11.47-2.18c0,0,0.01-0.01,0.02-0.01h0c4.21-2.43,8.15-6.71,12.65-12.73c0.18-0.24,0.4-0.56,0.41-0.57
		C40.45,49.64,40.45,49.54,40.42,49.48"/>
	<path class="st3" d="M30.21,48.16L30.21,48.16C18.84,37.98,20.72,26.73,7.35,22.9c-0.33-0.09-0.64-0.16-0.94-0.21l0,0
		c-0.38-0.06-0.72-0.1-1.04-0.11c-0.88-0.06-1.99,0-2.84,0.56c-0.7,0.46-1.08,1.31-1.29,1.99c-0.02,0.09-0.36,1.45-0.16,3.42
		c0.2,1.79,0.81,4.4,2.45,7.43c0.15,0.29,0.31,0.58,0.48,0.86c0,0.01,0.01,0.01,0.01,0.02v0c4.65,7.74,14.05,10.65,25.7,11.74
		c0.11,0.01,0.52,0.02,0.6-0.1C30.41,48.35,30.21,48.16,30.21,48.16"/>
	<path class="st0" d="M43.82,8.21c-0.04-0.4-0.09-0.77-0.14-1.13c-0.28-1.68-0.81-3.07-1.27-4.03c-0.91-1.65-2.06-2.2-2.44-2.35
		c-1.09-0.33-2.49-0.27-3.93,0.57l0,0c0,0-7.63,4.01-11.88,12.28c-0.76,1.41-1.34,2.86-1.75,4.34c0,0.01,0,0.01,0,0.01l0,0
		c-1.78,6.5-0.21,13.76,4.59,22.62c0.05,0.08,0.19,0.3,0.37,0.3c0.21,0,0.27-0.45,0.3-0.7c0.06-0.41,0.13-0.81,0.21-1.2
		c0.39-1.91,0.93-3.56,1.47-4.9l0,0c0,0,1.49-4.52,7.16-10.54c3.48-3.98,6.74-7.5,7.32-12.21h0c0,0,0,0,0-0.01
		C43.94,10.3,43.95,9.28,43.82,8.21"/>
	<path class="st4" d="M70.45,29.23c-0.04-0.36-0.12-0.7-0.24-1.01c-0.39-0.99-1.19-1.78-1.78-2.27c-3.59-2.68-7.21-4.24-9.62-5.08
		c-0.75-0.27-1.48-0.5-2.19-0.68c-5.64-1.4-10.25,0.52-12.85,2.09c-0.77,0.5-1.54,1.06-2.32,1.7c0,0,0,0,0,0
		c-0.81,0.66-1.65,1.43-2.47,2.24c-4.25,4.12-6.83,8.03-6.83,8.03c-0.05,0.07-0.28,0.43-0.13,0.55c0,0,0.2,0.16,0.76-0.3l0,0
		c8.54-6.63,17.25,1.33,26.17,1.79l0,0h0.01c0.16,0.01,0.32,0.01,0.47,0.02v0c0,0,0,0,0,0c0.52,0.01,1.04-0.01,1.57-0.06
		c5.15-0.36,7.55-2.59,8.62-4.15c0.09-0.12,0.18-0.24,0.26-0.36c0.39-0.68,0.51-1.16,0.51-1.2c0,0,0,0,0,0
		c0.08-0.45,0.09-0.88,0.05-1.29C70.45,29.24,70.45,29.24,70.45,29.23"/>
	<path class="st1" d="M31.92,45.34c0.28,0.07,0.74-0.36,0.9-0.51c1.7-1.76-0.24-4.71,0.43-7.22l0.11-0.44c0.01-0.05,0.01-0.1,0-0.12
		c-0.01-0.01-0.01-0.01-0.01-0.02c-0.03-0.02-0.07,0-0.1,0.02c-1.55,1.2-2.46,2.89-2.56,4.63c0,0,0-0.01,0,0
		c-0.01,0.1-0.01,0.21-0.01,0.32c-0.01,0.4,0.02,1.59,0.57,2.61C31.35,44.79,31.65,45.27,31.92,45.34"/>
</g>
</svg>
