<?xml version="1.0" encoding="utf-8"?>
<!-- Generator: Adobe Illustrator 23.1.0, SVG Export Plug-In . SVG Version: 6.00 Build 0)  -->
<svg version="1.1" id="Layer_1" xmlns="http://www.w3.org/2000/svg" xmlns:xlink="http://www.w3.org/1999/xlink" x="0px" y="0px"
	 viewBox="0 0 187 49" style="enable-background:new 0 0 187 49;" xml:space="preserve">
<style type="text/css">
	.st0{fill:#BC1339;}
	.st1{fill:#0087CA;}
	.st2{fill:#2C9647;}
	.st3{fill:#231F20;}
</style>
<g>
	<path class="st0" d="M27.45,7.62c0.09,0.14,0.21,0.26,0.22,0.4c0.13,0.41,0.51,0.66,0.56,1.07c0.02,0.14,0.2,0.2,0.29,0.26
		c0.1,0.13,0.03,0.28,0.23,0.47c0.09,0.06,0.02,0.21,0.04,0.35c0.09,0.06,0.19,0.12,0.28,0.18c0.85,1.33,0.93,2.87-0.05,4.3
		c-0.16,0.16-0.31,0.38-0.37,0.6c-0.08,0.08-0.25,0.16-0.33,0.24c0.02,0.14,0.11,0.2,0.21,0.33c-0.43,0.11-0.48,0.47-0.8,0.71
		c-0.09,0.01-0.26,0.02-0.35,0.03c-0.24,0.24-0.49,0.33-0.74,0.49c-0.08,0.08-0.06,0.29-0.05,0.36c-0.41,0.32-1,0.52-1.62,0.5
		c-0.08,0.01-0.15,0.23-0.23,0.23c-0.44,0.04-0.96,0.02-1.4,0.06c-0.18-0.05-0.28-0.18-0.47-0.24c-0.17,0.02-0.35,0.03-0.53-0.02
		c-0.28-0.19-0.64-0.22-0.92-0.34c-0.18-0.05-0.51,0.12-0.7,0c-0.58-0.51-1.17-1.02-1.49-1.55c-0.21-0.33-0.58-0.44-0.7-0.78
		c-0.02-0.14,0.05-0.36-0.13-0.41c-0.36-0.11-0.21-0.33-0.23-0.54c-0.11-0.2-0.13-0.34-0.32-0.53c-0.11-0.2,0.03-0.5-0.08-0.77
		c-0.01-0.07,0.07-0.15,0.06-0.22c-0.13-0.41,0.08-0.85,0.04-1.2c-0.02-0.21,0.03-0.5,0.1-0.71c0.22-0.44,0.42-0.96,0.81-1.42
		c-0.01-0.07-0.02-0.21-0.03-0.28c0.08-0.08,0.17-0.09,0.24-0.17c0.14-0.36,0.28-0.66,0.51-0.96c0.31-0.38,0.8-0.71,1.2-1.1
		c0.24-0.23,0.57-0.41,0.79-0.78c0.08-0.08,0.36,0.04,0.44-0.04c0.24-0.23,0.59-0.2,0.84-0.36c0.25-0.16,0.2,0.19,0.45,0.1
		c0.17-0.02,0.25-0.09,0.42-0.18c0.25-0.09,0.54,0.09,0.81,0.13c0.26-0.02,0.53,0.02,0.81,0.21c0.38,0.25,1.25,0.16,1.39,0.65
		C26.86,7.04,27.24,7.28,27.45,7.62z"/>
	<path class="st1" d="M42.17,13.13c-0.01-0.22,0-0.35-0.09-0.58c-0.02-0.22,0.15-0.46,0.07-0.76c-0.05-0.08-0.16-0.17-0.15-0.24
		c0.15-0.46,0.16-0.88,0.12-1.38c-0.04-0.15-0.09-0.23-0.14-0.31c0.01-0.07,0.04-0.2,0.06-0.34c0.01-0.42-0.12-0.73-0.25-1.11
		c-0.04-0.15-0.15-0.24-0.17-0.46c-0.05-0.08-0.16-0.18-0.15-0.25c0.11-0.61-0.18-1.09-0.27-1.67c-0.14-0.66-0.76-1.08-0.96-1.75
		c0.01-0.07,0.22-0.04,0.28-0.03c0.49,0.46,1.04,1,1.17,1.66c0.09,0.23,0.05,0.43,0.15,0.59c0.42,0.51,0.49,1.16,0.57,1.81
		c-0.01,0.07,0.12,0.03,0.17,0.11c-0.01,0.07-0.04,0.2,0.01,0.28c0.32,0.35,0.12,0.73,0.19,1.09c0.04,0.15,0.08,0.23,0.13,0.31
		c-0.01,0.07-0.17,0.25-0.19,0.31c0.26,0.34,0.37,0.78,0.3,1.19c0.3,0.14,0.16,0.53,0.23,0.82c0.05,0.08,0.11,0.09,0.17,0.11
		c0.08-0.12,0.17-0.24,0.2-0.38c0.04-0.55,0.06-1.04-0.04-1.55c-0.08-0.23-0.11-0.45,0.05-0.62c-0.12-0.03-0.16-0.18-0.21-0.26
		c-0.22-0.89-0.31-1.89-0.58-2.8c0,0,0.07-0.05,0.09-0.12c-0.09-0.8-0.7-1.55-0.99-2.35C41.92,4.33,41.68,4.16,41.57,4
		c0,0,0.01-0.07,0.02-0.14c0.31,0.04,0.55,0.34,0.71,0.57c0.33,0.46,0.7,0.97,0.8,1.49c0.17,0.46,0.43,0.94,0.53,1.39
		c0.07,0.3,0.28,0.49,0.43,0.74c0.08,0.23,0.04,0.43,0.06,0.65c0.09,0.52,0.24,1.01,0.34,1.53c0.12,0.38,0.18,0.81,0.05,1.13
		c-0.17,0.59,0.22,1.24,0.38,1.77c0.09,0.23-0.02,0.49-0.12,0.68c-0.01,0.07,0.1,0.16,0.08,0.23c-0.11,0.26-0.02,0.49-0.07,0.76
		c-0.07,0.05,0.09,0.23,0,0.35c-0.07,0.06-0.13,0.04-0.21,0.1c-0.1,0.19-0.01,0.42-0.05,0.62c-0.2,0.38-0.1,0.89-0.47,1.16
		c-0.14,0.04-0.15,0.11-0.22,0.16c0.06,0.01,0.11,0.09,0.16,0.18c-0.07,0.05-0.14,0.04-0.21,0.09c-0.02,0.13,0.24,0.3,0.29,0.38
		c-0.1,0.54-0.5,1.01-0.49,1.65c-0.03,0.13-0.06,0.34-0.09,0.47c-0.12,0.32-0.36,0.55-0.48,0.88c-0.02,0.13-0.28,0.15-0.31,0.28
		c-0.16,0.17-0.15,0.46-0.26,0.72c-0.09,0.12-0.27,0.08-0.42,0.19c-0.17,0.24-0.15,0.46-0.26,0.71c-0.19,0.31-0.41,0.65-0.59,0.96
		c-0.21,0.45-0.56,0.87-0.94,1.21c-0.06-0.01-0.2,0.03-0.27,0.08c-0.2,0.38-0.42,0.66-0.84,0.85c-0.06-0.01-0.15,0.28-0.23,0.33
		c-0.29,0.21-0.45,0.46-0.8,0.66c-0.13,0.04-0.2,0.09-0.35-0.15c-0.46,0.81-1.07,1.44-1.73,2c-0.35,0.2-0.7,0.18-0.93,0.41
		c-0.76,0.74-1.96,1.53-2.09,1.64c-0.06-0.01-0.29,0.33-0.29,0.33c-0.24,0.02-0.1,0.04-0.33-0.01c0,0-0.01,0.38-0.32,0.44
		c-0.65,0.13-0.82,0.88-0.87,1.19c-0.03,0.16-0.13,0.05-0.21,0.11c-0.07,0.06-0.02,0.16-0.1,0.22c-0.28,0.17-0.53,0.52-0.76,0.79
		c-0.07,0.06-0.12-0.03-0.2,0.03c-0.07,0.06-0.42,0.49-0.54,0.87c-0.3,0.66-0.62,1.25-1.03,1.71c-0.1,0.11,0.23,0.55,0.21,0.7
		c-0.09,0.21-0.28,0.24-0.37,0.45c-0.08,0.51-0.11,1.09-0.2,1.64c-0.15,0.53,0.04,0.91,0.11,1.39c0.08,0.4-0.02,0.92,0,1.31
		c0.03,0.31,0.24,0.66,0.21,0.96c0.01,0.47-0.1,0.41,0.01,0.8c-0.01,0.23-0.09,0.46-0.04,0.61c-0.02,0.31-0.07,0.5-0.08,0.8
		c-0.07,0.07-0.2,0.22-0.2,0.3c-0.05,0.77-0.55,1.44-1.07,1.95c-0.33,0.21-0.61,0.53-0.98,0.5c-0.19-0.01-0.81,0.38-1.02,0.43
		c-0.55,0.15-0.99,0.16-1.52,0.09c-0.58-0.16-1.05-0.3-1.45-0.9c-0.24-0.27-0.65-0.17-0.8-0.58c-0.05-0.16-0.38-0.25-0.44-0.33
		c-0.31-0.27-0.47-0.61-0.7-0.95c-0.15-0.41-0.04-0.69-0.23-1.08c-0.19-0.24-0.27-0.41-0.46-0.66c-0.25-0.32,0.06-0.78-0.13-1.1
		c-0.13-0.09-0.26-0.25-0.32-0.41c-0.12-0.31-0.09-0.77-0.28-1.1c-0.1-0.4-0.04-1.85,0.04-2.24c0.01-0.08-0.21-0.19-0.2-0.27
		c0.03-0.56,0.23-1.11,0.18-1.69c0.06-0.31,0.03-0.56,0.31-0.83c0,0-0.13-0.11-0.12-0.19c0.16-0.45,0.16-0.8,0.25-1.27
		c0.01-0.08,0.18-0.13,0.19-0.2c-0.09-0.34-0.1-1.04-0.04-1.35c0.03-0.16,0.43-0.39,0.53-0.53c0.01-0.08-0.06-0.28,0.09-0.55
		c0.04-0.07,0.14-0.05,0.22-0.11c0.01-0.08-0.04-0.17-0.02-0.25c0.04-0.23,0.43-0.4,0.46-0.56c0.16-0.53,0.42-0.75,0.7-1.18
		c0.1-0.19,0.14-0.39,0.3-0.57c0.07-0.05,0.11,0,0.12-0.07c0.01-0.07-0.02-0.22-0.01-0.28c0.16-0.18,0.37-0.34,0.41-0.54
		c0.11-0.26,0.21-0.44,0.36-0.62c0.29-0.22,0.58-0.43,0.76-0.74c0.16-0.18,0.34-0.14,0.49-0.31c0.23-0.23,0.29-0.57,0.46-0.81
		c0.4-0.47,0.83-0.8,1.26-1.12c0.36-0.27,0.82-0.38,1.17-0.58c0.36-0.27,0.58-0.78,0.93-0.98c0.21-0.16,0.47-0.18,0.69-0.34
		c0.22-0.16,0.4-0.47,0.72-0.54c0.72-0.19,0.2,0.01,0.88-0.26c0.42-0.26,0.25-0.33,0.67-0.58c0.7-0.41,1.06-0.66,1.12-0.65
		c0.07-0.05,0.14-0.11,0.17-0.24c0.17-0.24,1.06-0.87,1.19-0.91c0.13-0.04,0.29,0.13,0.44-0.04c0.08-0.12-0.09-0.23,0-0.35
		c0.23-0.23,0.45-0.54,0.67-0.7c0.07-0.05,0.25,0.05,0.38,0.01c0.07-0.05,0.1-0.19,0.17-0.24c0.09-0.12-0.07-0.3,0.01-0.42
		c0.1-0.19,0.2-0.38,0.33-0.42c0.21-0.09,0.49-0.24,0.46-0.39c0.05-0.27,0.16-0.53,0.44-0.68c0.01-0.07,0.03-0.14,0.04-0.2
		c0.16-0.18,0.31-0.28,0.47-0.46c0.17-0.24,0.1-0.54,0.2-0.73c0.32-0.35,0.63-0.63,0.71-1.11c-0.02-0.22-0.16-0.53-0.06-0.72
		c0.08-0.12,0.35-0.2,0.38-0.33c0.05-0.27-0.09-0.58-0.1-0.86c0.04-0.2,0.26-0.37,0.23-0.58c-0.02-0.57,0.01-1.12-0.07-1.7
		c0.19-0.03,0.22-0.16,0.24-0.3c-0.05-0.43-0.3-0.83-0.41-1.28c-0.01-0.28,0.22-0.51,0.21-0.79c-0.03-0.22-0.23-0.47-0.46-0.66
		c-0.21-0.26-0.07-0.65-0.15-0.94c-0.06-0.36-0.33-0.64-0.38-1.07c-0.02-0.22-0.28-0.2-0.37-0.43c-0.07-0.3-0.15-0.59-0.15-0.95
		c-0.04-0.15-0.23-0.12-0.34-0.21c-0.25-0.41-0.16-1.23-0.7-1.42c0.05-0.27-0.2-0.33-0.28-0.55c0.32,0,0.62,0.13,0.8,0.53
		c0.05,0.08,0.23,0.12,0.29,0.14c0.16,0.17,0.15,0.59,0.32,0.7c0.22,0.19,0.55,0.12,0.64,0.35c0.12,0.38,0.41,0.58,0.54,0.89
		c-0.01,0.07,0.02,0.22,0.07,0.3c0.22,0.19,0.25,0.4,0.4,0.58c0.37,0.43,0.74,0.87,0.57,1.46c-0.11,0.26,0.22,0.19,0.32,0.35
		c0.25,0.41,0.15,0.95,0.47,1.3c-0.06,0.69,0.27,1.32,0.48,1.93c-0.36,0.55-0.16,1.52,0.12,2.08c0,0,0.2-0.03,0.21-0.09
		c0.06-0.34,0.67-0.45,0.57-0.61c-0.12-0.38-0.31-1.17-0.31-1.52c0.04-0.56,0.06-1.04-0.03-1.62c-0.05-0.08-0.1-0.16-0.15-0.24
		c-0.07-0.3-0.15-0.6-0.09-0.93C40,6.76,39.89,6.67,39.85,6.52c0.01-0.07,0.04-0.2,0.05-0.27c0.14-0.04,0.31,0.07,0.43,0.1
		c0.11,0.09,0.01,0.28,0.06,0.36c0.2,0.32,0.49,0.46,0.55,0.82c-0.01,0.07-0.04,0.2-0.05,0.27c0.05,0.43,0.31,0.77,0.37,1.13
		c0.03,0.21-0.16,0.52-0.07,0.76c0.28,0.55,0.29,1.19,0.25,1.81c-0.05,0.27,0.29,0.49,0.2,0.67c-0.1,0.19,0.03,0.22-0.07,0.41
		c-0.01,0.07-0.15,0.11-0.16,0.18c0.18,0.39-0.09,0.98-0.16,1.32c-0.01,0.07,0.21,0.14,0.26-0.11c0.03-0.15,0.28-0.15,0.42-0.19
		C42.07,13.67,42.18,13.42,42.17,13.13z M43.49,14.48c0.01-0.34,0.17-0.59,0.11-0.96c-0.12-0.38-0.4,0-0.6,0.02
		c0.11,0.45-0.07,0.75-0.21,1.15c-0.08,0.12-0.15,0.46,0.05,0.43C43.16,15.2,43.48,14.9,43.49,14.48z M42.97,16.33
		c0.08-0.11,0.04-0.33-0.07-0.42c-0.17-0.11-0.39,0.06-0.49,0.24c-0.1,0.19-0.02,0.49,0.24,0.47C42.7,16.64,42.88,16.45,42.97,16.33
		z"/>
	<path class="st1" d="M39.35,4.81c0.33,0.25,0.46,0.66,0.72,1l-0.03,0.14c-0.45,0.39-0.85-0.26-0.97-0.64
		c-0.18-0.39-0.37-0.78-0.7-1.07c0.01-0.07,0.03-0.13,0.04-0.2c-0.16-0.18-0.37-0.43-0.16-0.53c0.09-0.12,0.24,0.12,0.41,0.23
		C38.9,4.09,38.95,4.52,39.35,4.81z"/>
	<path class="st1" d="M41.21,3.08c0,0.07-0.11,0.19-0.12,0.25c-0.21-0.2-0.43-0.4-0.61-0.73c-0.06-0.02-0.18-0.05-0.23-0.13
		c-0.06-0.02-0.05-0.08-0.03-0.15c0.2-0.02,0.35,0.16,0.52,0.28c0.06,0.02,0.14-0.03,0.2-0.02C41.1,2.7,41.19,2.86,41.21,3.08z"/>
	<path class="st2" d="M13.43,15.51c0.06,0.05,0.15,0.13,0.19,0.19c0.1,0.07,0.2,0.07,0.31,0.03c0.1,0.01,0.19,0.27,0.3,0.28
		c0.15,0.07,0.24,0.33,0.39,0.46c0.1,0.06,0.2,0.16,0.3,0.22c0.14,0.18,0.23,0.36,0.38,0.48c0.09,0.12,0.25,0.08,0.36,0.08
		c0.2,0.07,0.28,0.36,0.42,0.54c0.05,0,0.14,0.18,0.14,0.24c0.1,0.06,0.19,0.18,0.34,0.25c0.04,0.06,0.04,0.17,0.08,0.23
		c0.37,0.6,0.86,0.98,1.17,1.63c0,0,0.04,0.12,0.04,0.17c0.38,0.37,0.55,0.9,0.88,1.32c0.09,0.18,0.17,0.47,0.26,0.7
		c0.1,0.12,0.19,0.19,0.29,0.31c0.14,0.24,0.27,0.53,0.3,0.82c-0.01,0.11-0.08,0.45-0.28,0.26c-0.24-0.25-0.22-0.58-0.46-0.77
		c0-0.06-0.06-0.2-0.11-0.26c-0.1-0.12-0.27-0.11-0.31-0.28c0.01-0.17-0.18-0.31-0.27-0.42c-0.24-0.35-0.6-0.48-0.89-0.83
		c-0.05,0-0.11,0-0.16,0.05c-0.05,0.11-0.21,0.27-0.07,0.45c0.2,0.12,0.3,0.35,0.55,0.48c0.15,0.12,0.19,0.46,0.28,0.75
		c0.1,0.12,0.2,0.23,0.35,0.3c0.15,0.12,0.09,0.3,0.23,0.48c0,0.06-0.06,0.11-0.06,0.16c0.09,0.18,0.3,0.14,0.44,0.32
		c0.11-0.1,0.26-0.02,0.35,0.14c-0.17,0.16-0.12,0.27-0.19,0.44c-0.17,0.27,0.22,0.53,0.47,0.66c0.16,0.01,0.13,0.29,0.28,0.42
		c0.09,0.18,0.35,0.2,0.48,0.44c0.04,0.12-0.06,0.17-0.12,0.27c-0.01,0.17,0.19,0.24,0.29,0.31c0.1,0.07,0.14,0.18,0.18,0.3
		c-0.16,0.04-0.46-0.17-0.62-0.18c-0.1-0.04-0.28-0.26-0.48-0.31c-0.07-0.02-0.12,0.15-0.19,0.13c-0.09-0.02-0.19-0.04-0.29-0.06
		c-0.11-0.02-0.37-0.31-0.48-0.32c-0.13-0.02-0.29,0.21-0.41,0.19c-0.46-0.08-0.48-0.11-0.63-0.17c-0.17-0.07-0.34-0.15-0.49-0.24
		c-0.1-0.05-0.07-0.19-0.17-0.25c-0.09-0.06-0.3-0.06-0.39-0.12c-0.37-0.23-0.72-0.74-1.04-0.91c-0.21-0.11-0.38-0.22-0.62-0.33
		c-0.11-0.07-0.2-0.23-0.34-0.28c-0.44-0.15-0.79-0.42-1.28-0.56c-0.94-0.27-1.72,0.27-2.49,0.67c-0.04,0-0.12-0.01-0.16,0.02
		c-0.18,0.15-0.38,0.23-0.56,0.35C9.69,24.95,9.36,25,9.09,25.15C9.01,25.2,9,25.35,8.92,25.4c-0.12,0.07-0.35,0.09-0.47,0.16
		c-0.11,0.07-0.12,0.2-0.23,0.29C8,26.03,7.78,26.17,7.49,26.31c-0.17,0.09-1.58,0.33-1.81,0.33c-0.36,0-0.62,0.3-1.16,0.3
		c-0.82,0-1.65-0.02-2.33-0.53c-0.14-0.13-0.17-0.47-0.27-0.53c-0.3-0.19-0.27-0.59-0.35-0.88c-0.1-0.06-0.3-0.08-0.29-0.25
		c0.11-0.84,0.53-1.6,1.04-2.18c0.12-0.22,0.38-0.31,0.41-0.59c0,0,0.46-0.64,0.74-0.9c0.06-0.11-0.03-0.29,0.03-0.39
		c0.42-0.82,1.18-1.38,1.81-2.12c0.17-0.16,0.28-0.37,0.55-0.41c0.11,0.01,0.21,0.02,0.27-0.09c0.12-0.27,0.34-0.42,0.5-0.53
		c0.6-0.41,1.1-1.02,1.78-1.13c0.11-0.05,0.17-0.16,0.27-0.21c0.11-0.1,0.31,0.02,0.42-0.02c0.51-0.23,0.97-0.72,1.49-0.79
		c0.11-0.05,0.17-0.16,0.22-0.15c0.46,0.04,1.01-0.37,1.44,0.06C12.6,15.21,13.18,15.3,13.43,15.51z M16.97,20.45
		c0-0.06,0-0.11,0.01-0.17c-0.2-0.12-0.29-0.47-0.55-0.54c-0.05,0-0.16,0.05-0.16,0.11c-0.01,0.34,0.13,0.57,0.27,0.86
		c0.06-0.22,0.21-0.21,0.31-0.04C16.91,20.62,16.96,20.51,16.97,20.45z"/>
</g>
<g>
	<path class="st3" d="M66.3,36.28l-2.33,2.43l-6.48-6.32c-0.85,1.51-1.87,2.79-3.05,3.85c-1.18,1.05-2.36,1.91-3.53,2.57l-2.27-2.59
		c1.28-0.64,2.37-1.38,3.27-2.23c0.9-0.85,1.64-1.75,2.22-2.68c0.57-0.94,0.99-1.89,1.26-2.87c0.26-0.98,0.4-1.94,0.4-2.87v-4.47
		h3.58v3.83c0,0.75-0.05,1.46-0.14,2.14c-0.1,0.68-0.22,1.34-0.37,1.98L66.3,36.28z M73.71,47.26h-3.39V30.14h-7.06v-3.26h7.06V18.2
		h3.39V47.26z"/>
	<path class="st3" d="M104.35,34.55h-12.1v1.6h6v7.5H86.66v1.44h12.36v3.26H83.14v-7.79H94.7v-1.28H82.98v-3.13h5.84v-1.6H76.98
		v-3.19h27.37V34.55z M97.96,24.27c0,0.92-0.2,1.75-0.59,2.51c-0.39,0.76-0.92,1.41-1.58,1.96c-0.68,0.53-1.49,0.95-2.41,1.25
		c-0.93,0.3-1.93,0.45-3.02,0.45c-1.02,0-1.98-0.14-2.89-0.42c-0.91-0.28-1.71-0.68-2.41-1.21c-0.68-0.53-1.22-1.18-1.61-1.93
		c-0.39-0.76-0.59-1.61-0.59-2.57c0-0.96,0.19-1.83,0.57-2.6c0.38-0.78,0.92-1.44,1.6-2c0.66-0.55,1.45-0.98,2.36-1.28
		c0.91-0.3,1.9-0.45,2.97-0.45c1.04,0,2.03,0.15,2.95,0.45c0.93,0.3,1.73,0.72,2.41,1.28c0.68,0.53,1.22,1.19,1.63,1.96
		C97.76,22.45,97.96,23.31,97.96,24.27z M94.45,24.24c0-1-0.4-1.79-1.21-2.36c-0.81-0.58-1.77-0.86-2.87-0.86
		c-1.15,0-2.11,0.28-2.89,0.85c-0.78,0.56-1.17,1.36-1.17,2.38c0,0.98,0.39,1.75,1.17,2.3c0.78,0.55,1.74,0.83,2.89,0.83
		c1.11,0,2.06-0.25,2.87-0.76C94.04,26.09,94.45,25.3,94.45,24.24z"/>
	<path class="st3" d="M133.1,36.64h-27.33v-3.22h27.33V36.64z M127.16,48.35h-3.42v-6.66h-12.23v-3.26h15.65V48.35z M127.1,31.76
		h-15.46V19.18h15.26v3.22h-11.88v1.37h11.5v3.26h-11.5v1.5h12.07V31.76z"/>
	<path class="st3" d="M148.43,33.05h-13V19.77h3.38v3.83h6.2v-3.83h3.42V33.05z M145.01,29.83v-3h-6.2v3H145.01z M158.04,48.35
		h-15.68v-8.02h11.4v-1.66H142.2v-3.23h15.07v8.02h-11.33v1.66h12.1V48.35z M158.3,34.52h-3.35v-3.1h-5.49v-3.2h5.49v-2.3h-5.49
		v-3.23h5.49v-4.5h3.35V34.52z"/>
	<path class="st3" d="M179.13,36.37l-2.33,2.43l-6.45-6.35c-0.83,1.53-1.84,2.83-3.02,3.88c-1.18,1.05-2.38,1.91-3.59,2.57
		l-2.27-2.59c1.3-0.7,2.4-1.48,3.31-2.33c0.9-0.85,1.64-1.74,2.22-2.65c0.55-0.94,0.96-1.88,1.23-2.84c0.27-0.96,0.4-1.91,0.4-2.84
		v-4.57h3.58V25c0,0.75-0.05,1.45-0.14,2.12c-0.1,0.67-0.22,1.31-0.37,1.93L179.13,36.37z M186.12,47.26h-3.42V18.2h3.42V47.26z"/>
</g>
</svg>
