<?xml version="1.0" encoding="utf-8"?>
<!-- Generator: Adobe Illustrator 23.1.0, SVG Export Plug-In . SVG Version: 6.00 Build 0)  -->
<svg version="1.1" id="Layer_1" xmlns="http://www.w3.org/2000/svg" xmlns:xlink="http://www.w3.org/1999/xlink" x="0px" y="0px"
	 viewBox="0 0 357 301" style="enable-background:new 0 0 357 301;" xml:space="preserve">
<style type="text/css">
	.st0{fill:#EAEAEA;}
	.st1{fill:#F1F3FC;}
</style>
<g>
	<path class="st0" d="M266.16,296.35c-0.75-1.1-2.06-0.98-3.11-1.4c-5.74-2.32-8.99-6.62-9.46-12.68
		c-0.39-4.97,1.28-9.39,5.55-12.39c11.24-7.87,21.71-16.63,30.74-26.98c17.35-19.89,28.05-42.97,32.66-68.94
		c1.81-10.22,2.64-20.52,2.03-30.86c-1.91-32.27-12.7-61.08-33.75-85.88c-8.76-10.32-19-18.91-30.01-26.7
		c-8.01-5.66-9.52-14.2-4.29-21.68c2.08-2.97,5.55-3.86,8.22-5.94c1.9,0,3.81,0,5.71,0c1.89,1.17,4.12,1.5,6,2.77
		c20.08,13.5,37.08,30.04,50.04,50.58c26,41.23,33.54,85.65,22.77,133.14c-6.21,27.42-18.95,51.66-37.34,72.78
		c-12.01,13.79-25.2,26.4-42.19,34.17C268.54,296.35,267.35,296.35,266.16,296.35z"/>
	<path class="st1" d="M2.59,194.26l-0.3,0l-0.3-0.01c0-29.75,0-59.5,0-89.25c0.2-0.01,0.4-0.02,0.6-0.01
		c0.04,3.32,0.11,6.64,0.11,9.95C2.67,141.39,2.63,167.83,2.59,194.26z"/>
	<path class="st0" d="M2.59,194.26c0.04-26.44,0.08-52.88,0.11-79.31c0-3.32-0.07-6.63-0.11-9.95c1.67-9.84,6.79-14.05,17.29-14.06
		c18.79-0.03,37.59-0.04,56.38,0.06c2.46,0.01,4.18-0.72,5.91-2.47c16.56-16.74,33.21-33.4,49.83-50.09c2.99-3,6.24-5.35,10.67-5.88
		c7.44-0.87,14.83,4.7,15.79,12.19c0.21,1.65,0.39,3.31,0.39,4.97c0.02,66.49,0.02,132.97,0,199.46c0,3.08-0.08,6.18-1.5,9.05
		c-4.63,9.32-16.35,11.2-23.92,3.68c-17.3-17.19-34.52-34.44-51.7-51.74c-1.65-1.67-3.29-2.28-5.59-2.27
		c-18.91,0.08-37.83-0.14-56.73,0.14C11.21,208.14,3.9,204.23,2.59,194.26z"/>
	<path class="st0" d="M295.5,153.73c-1.29,36.05-17.95,67.85-51.47,90.44c-7.15,4.82-16.1,3.29-20.48-3.22
		c-4.82-7.17-3.31-15.84,4.11-20.92c13.43-9.2,24.17-20.67,30.92-35.59c8.95-19.76,10.15-40.02,3.54-60.71
		c-5.42-16.96-15.34-30.67-29.71-41.18c-1.82-1.33-3.68-2.62-5.44-4.03c-6.86-5.52-8.11-13.95-3.13-20.83
		c4.51-6.22,12.86-7.48,20.06-2.89c14.16,9.02,25.67,20.69,34.49,34.99C289.7,108.13,295.32,128.09,295.5,153.73z"/>
	<path class="st0" d="M236.97,150.18c-1.24,20.1-10.27,35.88-28.24,46.18c-6.36,3.64-14.88,1.37-18.89-4.78
		c-4.07-6.23-2.77-14.57,3.05-19.27c1.29-1.04,2.73-1.91,4.08-2.87c14.53-10.39,14.31-30.13-0.42-40.29
		c-1.95-1.34-4.07-2.43-5.63-4.33c-4.47-5.44-4.63-13.01-0.29-18.39c4.45-5.51,12.25-7.32,18.31-3.76
		C226.86,113.21,236.01,129.07,236.97,150.18z"/>
</g>
</svg>
