<?xml version="1.0" encoding="utf-8"?>
<!-- Generator: Adobe Illustrator 23.1.0, SVG Export Plug-In . SVG Version: 6.00 Build 0)  -->
<svg version="1.1" id="Layer_1" xmlns="http://www.w3.org/2000/svg" xmlns:xlink="http://www.w3.org/1999/xlink" x="0px" y="0px"
	 viewBox="0 0 61 30" style="enable-background:new 0 0 61 30;" xml:space="preserve">
<style type="text/css">
	.st0{fill:#C2D42E;}
</style>
<g>
	<path class="st0" d="M1.3,2.59C1.54,2.32,1.8,2.09,2.08,1.9c0.9-0.58,2.01-0.77,2.78-0.82c4.5-0.1,8.37,0.73,10.83,1.45
		c0.77,0.21,1.5,0.46,2.19,0.72c5.44,2.15,8.08,6.4,9.29,9.21c0.34,0.86,0.65,1.77,0.91,2.74c0,0,0,0,0,0
		c0.28,1.01,0.52,2.13,0.72,3.27c1.08,5.86,0.91,10.55,0.91,10.55c0,0.08-0.02,0.51-0.21,0.53c0,0-0.26,0.01-0.45-0.69l0,0
		c-3.12-10.4-14.89-8.97-22.46-13.8l0,0l0,0c-0.13-0.09-0.27-0.17-0.4-0.26l0,0c0,0,0,0,0,0c-0.43-0.3-0.85-0.62-1.25-0.97
		C0.92,10.55,0.25,7.32,0.3,5.42c-0.01-0.15-0.01-0.3,0-0.45c0.07-0.78,0.26-1.25,0.28-1.28c0,0,0,0,0,0
		c0.19-0.42,0.44-0.78,0.71-1.09C1.29,2.6,1.29,2.6,1.3,2.59"/>
	<path class="st0" d="M58.99,2.59c-0.24-0.27-0.51-0.5-0.78-0.68c-0.9-0.58-2.01-0.77-2.78-0.82c-4.5-0.1-8.37,0.73-10.83,1.45
		c-0.77,0.21-1.5,0.46-2.19,0.72c-5.44,2.15-8.08,6.4-9.29,9.21c-0.34,0.86-0.65,1.77-0.91,2.74c0,0,0,0,0,0
		c-0.28,1.01-0.52,2.13-0.72,3.27c-1.08,5.86-0.91,10.55-0.91,10.55c0,0.08,0.02,0.51,0.21,0.53c0,0,0.26,0.01,0.45-0.69l0,0
		c3.12-10.4,14.89-8.97,22.46-13.8l0,0l0,0c0.13-0.09,0.27-0.17,0.4-0.26l0,0c0,0,0,0,0,0c0.43-0.3,0.85-0.62,1.25-0.97
		c4.01-3.29,4.67-6.52,4.63-8.42C60,5.27,60,5.12,60,4.97c-0.07-0.78-0.26-1.25-0.28-1.28c0,0,0,0,0,0
		c-0.19-0.42-0.44-0.78-0.71-1.09C59,2.6,59,2.6,58.99,2.59"/>
</g>
</svg>
